<svg xmlns="http://www.w3.org/2000/svg" width="500" height="500" version="1.1"><path fill="#B48EAD" d="M0 0 C2.24450969 3.66244208 2.60297255 7.42868357 3.05322266 11.61083984 C3.14129684 12.37231827 3.22937103 13.13379669 3.32011414 13.91835022 C3.60885782 16.43176255 3.88663514 18.94625295 4.1640625 21.4609375 C4.36241726 23.21211085 4.56134939 24.96321889 4.76083374 26.71426392 C5.17728286 30.38386839 5.58865181 34.0539941 5.99609375 37.72460938 C6.51761739 42.42177663 7.04871616 47.11779625 7.58326149 51.81349754 C7.99439824 55.43005442 8.40193337 59.04700954 8.80823898 62.66411209 C9.00284744 64.39529546 9.1982161 66.12639355 9.39436722 67.8574028 C9.66818819 70.28135834 9.93752469 72.70577055 10.20556641 75.13037109 C10.28658096 75.8412236 10.36759552 76.55207611 10.45106506 77.2844696 C10.87958455 81.20969622 11.07815265 85.05216236 11 89 C11.79019531 89.02578125 12.58039063 89.0515625 13.39453125 89.078125 C26.23122251 89.72362719 38.69321507 92.34565508 51 96 C51.38631592 95.27224365 51.77263184 94.5444873 52.1706543 93.79467773 C59.31811976 80.34714305 66.51706175 66.94288545 74.05419922 53.70849609 C78.52647293 45.85545392 82.92904951 37.96533543 87.3125 30.0625 C87.81813477 29.15115799 87.81813477 29.15115799 88.33398438 28.22140503 C90.22382758 24.81491856 92.11247851 21.40777342 94 18 C95.69280466 22.10591215 94.21330788 25.71270675 93.00219727 29.75024414 C92.77801117 30.52629501 92.55382507 31.30234589 92.32284546 32.10191345 C91.57984773 34.66575499 90.82304652 37.22531113 90.06640625 39.78515625 C89.54833121 41.56558729 89.03124964 43.34630769 88.51512146 45.12730408 C87.15413053 49.8156235 85.78195331 54.50058922 84.40673828 59.18475342 C82.20628687 66.68541013 80.02117962 74.1905363 77.83912468 81.69656181 C77.07425518 84.3207276 76.30367002 86.94316486 75.53236389 89.56544495 C75.06381752 91.16996745 74.59542051 92.77453357 74.12719727 94.37915039 C73.80224022 95.475634 73.80224022 95.475634 73.47071838 96.5942688 C72.62637194 99.50218311 72 101.9540975 72 105 C72.88300781 105.4846875 73.76601563 105.969375 74.67578125 106.46875 C84.81497489 112.10463157 94.20796108 118.39607444 103 126 C108.03568881 124.44386584 111.47567876 121.39272655 115.4375 118.0625 C116.87288559 116.87531924 118.30909786 115.68913736 119.74609375 114.50390625 C120.46265137 113.91109863 121.17920898 113.31829102 121.91748047 112.70751953 C124.90729555 110.25608147 127.9489222 107.87443103 131 105.5 C136.07311314 101.54166537 141.0799004 97.50909748 146.0625 93.4375 C152.0032223 88.5840717 158.0207854 83.85436536 164.1328125 79.21875 C166.23015673 77.59573702 168.23621012 75.94682731 170.2421875 74.21875 C173 72 173 72 175 72 C173.24720854 76.16936192 170.39689353 79.40688432 167.5625 82.875 C166.46817237 84.22739738 165.37443484 85.58027245 164.28125 86.93359375 C163.72953125 87.61534668 163.1778125 88.29709961 162.609375 88.99951172 C160.23095027 91.95594561 157.89660145 94.94604464 155.5625 97.9375 C151.58123349 103.0294979 147.52661539 108.05679697 143.4375 113.0625 C135.71377755 122.52474312 128.29789984 132.20545022 121 142 C122.5705486 145.51112173 124.69401913 148.2923736 127.0625 151.3125 C132.70082925 158.72365886 137.82984505 166.65969009 142 175 C150.33192615 173.60205627 158.36619342 171.25624878 166.45434189 168.86886024 C168.84921044 168.16265215 171.24585548 167.46280233 173.64309692 166.76469421 C180.45098632 164.78134416 187.25639625 162.78965169 194.05859375 160.78686523 C198.23682162 159.55713961 202.41776811 158.33707112 206.60058975 157.12306786 C208.18929816 156.6598691 209.77692835 156.19295533 211.36343002 155.7222538 C213.57422204 155.06657315 215.78825159 154.42319021 218.00341797 153.7824707 C219.26121063 153.41321976 220.5190033 153.04396881 221.81491089 152.66352844 C224.7759925 152.04666599 226.23154592 151.91685525 229 153 C228.26289795 153.40613525 227.5257959 153.81227051 226.76635742 154.23071289 C189.25140835 174.88031148 189.25140835 174.88031148 152 196 C152 200.10347484 152.82099838 203.52310156 153.875 207.4375 C156.33617505 216.93385928 158.05509432 226.15768915 158 236 C158.88980057 236.05156754 159.77960114 236.10313507 160.69636536 236.15626526 C170.38110615 236.75489922 179.99678128 237.68137976 189.63671875 238.77734375 C191.17510594 238.95056527 192.71350233 239.1237051 194.25190735 239.29676819 C197.44125824 239.65652414 200.63026762 240.01915139 203.8190918 240.38354492 C207.9012411 240.84950433 211.9844761 241.30512113 216.06805706 241.75833797 C219.22991613 242.11090483 222.39096605 242.47034413 225.55182838 242.83172798 C227.05821795 243.00283542 228.56489088 243.1714677 230.0718441 243.33753777 C232.16817697 243.56929442 234.2631911 243.81065692 236.3581543 244.05444336 C237.54757126 244.18910507 238.73698822 244.32376678 239.96244812 244.46250916 C242.71781504 244.95006774 244.61355831 245.58323477 247 247 C237.23875798 248.58846978 227.45290147 249.82702118 217.62890625 250.9453125 C216.09242883 251.12169408 214.55596568 251.29820002 213.01951599 251.474823 C209.8270851 251.84119066 206.63444621 252.20567449 203.44165039 252.56884766 C199.36056629 253.03327476 195.28012563 253.50311474 191.19983006 253.97441292 C188.03876163 254.33882604 184.87733826 254.70008119 181.71580315 255.06042099 C180.21066305 255.23241082 178.70564162 255.40544254 177.20074654 255.57956314 C175.10106564 255.82208711 173.00093425 256.06026435 170.90063477 256.29736328 C169.70962662 256.43345001 168.51861847 256.56953674 167.29151917 256.70974731 C164.17320283 256.98472663 161.12831183 257.05348177 158 257 C157.97421875 257.79019531 157.9484375 258.58039063 157.921875 259.39453125 C157.27637281 272.23122251 154.65434492 284.69321507 151 297 C152.00075562 297.53403442 152.00075562 297.53403442 153.02172852 298.07885742 C165.90288744 304.96135651 178.72657228 311.91393599 191.41186523 319.15283203 C199.59624461 323.80989125 207.87389289 328.28507905 216.19775391 332.68774414 C220.79711619 335.14535001 225.08704067 337.49848918 229 341 C223.53384771 340.4289889 218.43528659 339.44063193 213.1628418 337.86694336 C212.4252211 337.65221878 211.6876004 337.4374942 210.92762756 337.21626282 C208.51649551 336.51300682 206.10793055 335.80134018 203.69921875 335.08984375 C202.01409037 334.59737825 200.32876909 334.10557239 198.64326477 333.61439514 C194.22561389 332.3256971 189.80993033 331.03039922 185.39483643 329.73297119 C178.31146935 327.65173208 171.22627169 325.57681756 164.13895607 323.50906563 C161.66561065 322.78579252 159.19381726 322.05738449 156.72209167 321.32859802 C155.21151736 320.88674392 153.70088512 320.44508776 152.19018555 320.00366211 C151.50288361 319.79951691 150.81558167 319.5953717 150.10745239 319.38504028 C147.29116661 318.56664606 144.95159703 318 142 318 C141.53851563 318.84820312 141.07703125 319.69640625 140.6015625 320.5703125 C136.94611035 327.18245026 133.08990012 333.54238137 128.6875 339.6875 C128.26742676 340.2748291 127.84735352 340.8621582 127.41455078 341.46728516 C125.44266119 344.17595952 123.47523927 346.73303329 121 349 C122.55613416 354.03568881 125.60727345 357.47567876 128.9375 361.4375 C130.12468076 362.87288559 131.31086264 364.30909786 132.49609375 365.74609375 C133.08890137 366.46265137 133.68170898 367.17920898 134.29248047 367.91748047 C136.74391853 370.90729555 139.12556897 373.9489222 141.5 377 C145.45833463 382.07311314 149.49090252 387.0799004 153.5625 392.0625 C158.4159283 398.0032223 163.14563464 404.0207854 167.78125 410.1328125 C169.40426298 412.23015673 171.05317269 414.23621012 172.78125 416.2421875 C175 419 175 419 175 421 C170.83063808 419.24720854 167.59311568 416.39689353 164.125 413.5625 C162.77260262 412.46817237 161.41972755 411.37443484 160.06640625 410.28125 C159.38465332 409.72953125 158.70290039 409.1778125 158.00048828 408.609375 C155.04405439 406.23095027 152.05395536 403.89660145 149.0625 401.5625 C143.9705021 397.58123349 138.94320303 393.52661539 133.9375 389.4375 C124.47525688 381.71377755 114.79454978 374.29789984 105 367 C101.48887827 368.5705486 98.7076264 370.69401913 95.6875 373.0625 C88.27634114 378.70082925 80.34030991 383.82984505 72 388 C73.39794373 396.33192615 75.74375122 404.36619342 78.13113976 412.45434189 C78.83734785 414.84921044 79.53719767 417.24585548 80.23530579 419.64309692 C82.21865584 426.45098632 84.21034831 433.25639625 86.21313477 440.05859375 C87.44286039 444.23682162 88.66292888 448.41776811 89.87693214 452.60058975 C90.3401309 454.18929816 90.80704467 455.77692835 91.2777462 457.36343002 C91.93342685 459.57422204 92.57680979 461.78825159 93.2175293 464.00341797 C93.58678024 465.26121063 93.95603119 466.5190033 94.33647156 467.81491089 C94.95333401 470.7759925 95.08314475 472.23154592 94 475 C93.59386475 474.26289795 93.18772949 473.5257959 92.76928711 472.76635742 C72.11968852 435.25140835 72.11968852 435.25140835 51 398 C46.89652516 398 43.47689844 398.82099838 39.5625 399.875 C30.06614072 402.33617505 20.84231085 404.05509432 11 404 C10.94843246 404.88980057 10.89686493 405.77960114 10.84373474 406.69636536 C10.24510078 416.38110615 9.31862024 425.99678128 8.22265625 435.63671875 C8.04943473 437.17510594 7.8762949 438.71350233 7.70323181 440.25190735 C7.34347586 443.44125824 6.98084861 446.63026762 6.61645508 449.8190918 C6.15049567 453.9012411 5.69487887 457.9844761 5.24166203 462.06805706 C4.88909517 465.22991613 4.52965587 468.39096605 4.16827202 471.55182838 C3.99716458 473.05821795 3.8285323 474.56489088 3.66246223 476.0718441 C3.43070558 478.16817697 3.18934308 480.2631911 2.94555664 482.3581543 C2.81089493 483.54757126 2.67623322 484.73698822 2.53749084 485.96244812 C2.04993226 488.71781504 1.41676523 490.61355831 0 493 C-1.58846978 483.23875798 -2.82702118 473.45290147 -3.9453125 463.62890625 C-4.12169408 462.09242883 -4.29820002 460.55596568 -4.474823 459.01951599 C-4.84119066 455.8270851 -5.20567449 452.63444621 -5.56884766 449.44165039 C-6.03327476 445.36056629 -6.50311474 441.28012563 -6.97441292 437.19983006 C-7.33882604 434.03876163 -7.70008119 430.87733826 -8.06042099 427.71580315 C-8.23241082 426.21066305 -8.40544254 424.70564162 -8.57956314 423.20074654 C-8.82208711 421.10106564 -9.06026435 419.00093425 -9.29736328 416.90063477 C-9.43345001 415.70962662 -9.56953674 414.51861847 -9.70974731 413.29151917 C-9.98472663 410.17320283 -10.05348177 407.12831183 -10 404 C-10.79019531 403.97421875 -11.58039063 403.9484375 -12.39453125 403.921875 C-25.23122251 403.27637281 -37.69321507 400.65434492 -50 397 C-50.38631592 397.72775635 -50.77263184 398.4555127 -51.1706543 399.20532227 C-58.31811976 412.65285695 -65.51706175 426.05711455 -73.05419922 439.29150391 C-77.52647293 447.14454608 -81.92904951 455.03466457 -86.3125 462.9375 C-86.64958984 463.54506134 -86.98667969 464.15262268 -87.33398438 464.77859497 C-89.22382758 468.18508144 -91.11247851 471.59222658 -93 475 C-94.69280466 470.89408785 -93.21330788 467.28729325 -92.00219727 463.24975586 C-91.77801117 462.47370499 -91.55382507 461.69765411 -91.32284546 460.89808655 C-90.57984773 458.33424501 -89.82304652 455.77468887 -89.06640625 453.21484375 C-88.54833121 451.43441271 -88.03124964 449.65369231 -87.51512146 447.87269592 C-86.15413053 443.1843765 -84.78195331 438.49941078 -83.40673828 433.81524658 C-81.20628687 426.31458987 -79.02117962 418.8094637 -76.83912468 411.30343819 C-76.07425518 408.6792724 -75.30367002 406.05683514 -74.53236389 403.43455505 C-74.06381752 401.83003255 -73.59542051 400.22546643 -73.12719727 398.62084961 C-72.91055923 397.88986053 -72.6939212 397.15887146 -72.47071838 396.4057312 C-71.62637194 393.49781689 -71 391.0459025 -71 388 C-71.88300781 387.5153125 -72.76601562 387.030625 -73.67578125 386.53125 C-83.81497489 380.89536843 -93.20796108 374.60392556 -102 367 C-107.03568881 368.55613416 -110.47567876 371.60727345 -114.4375 374.9375 C-115.87288559 376.12468076 -117.30909786 377.31086264 -118.74609375 378.49609375 C-119.46265137 379.08890137 -120.17920898 379.68170898 -120.91748047 380.29248047 C-123.90729555 382.74391853 -126.9489222 385.12556897 -130 387.5 C-135.07311314 391.45833463 -140.0799004 395.49090252 -145.0625 399.5625 C-151.0032223 404.4159283 -157.0207854 409.14563464 -163.1328125 413.78125 C-165.23015673 415.40426298 -167.23621012 417.05317269 -169.2421875 418.78125 C-172 421 -172 421 -174 421 C-172.24720854 416.83063808 -169.39689353 413.59311568 -166.5625 410.125 C-165.46817237 408.77260262 -164.37443484 407.41972755 -163.28125 406.06640625 C-162.72953125 405.38465332 -162.1778125 404.70290039 -161.609375 404.00048828 C-159.23095027 401.04405439 -156.89660145 398.05395536 -154.5625 395.0625 C-150.58123349 389.9705021 -146.52661539 384.94320303 -142.4375 379.9375 C-134.71377755 370.47525688 -127.29789984 360.79454978 -120 351 C-121.5705486 347.48887827 -123.69401913 344.7076264 -126.0625 341.6875 C-131.70082925 334.27634114 -136.82984505 326.34030991 -141 318 C-149.56053619 319.48512231 -157.83832033 321.85492494 -166.16796875 324.28125 C-167.61653926 324.69994499 -169.06521582 325.11827321 -170.51399231 325.53625488 C-174.30161708 326.63004656 -178.0878171 327.72868978 -181.87371826 328.82843018 C-185.71900792 329.94451665 -189.56560424 331.05608004 -193.41210938 332.16796875 C-200.18243779 334.12552223 -206.95159941 336.08706349 -213.71989441 338.05163574 C-214.80232925 338.36459595 -215.8847641 338.67755615 -217 339 C-218.24280228 339.3777356 -219.48560455 339.75547119 -220.7660675 340.14465332 C-223.8207177 340.95258141 -225.12888376 341.1484465 -228 340 C-227.26289795 339.59386475 -226.5257959 339.18772949 -225.76635742 338.76928711 C-188.25140835 318.11968852 -188.25140835 318.11968852 -151 297 C-151 292.89652516 -151.82099838 289.47689844 -152.875 285.5625 C-155.33617505 276.06614072 -157.05509432 266.84231085 -157 257 C-157.88980057 256.94843246 -158.77960114 256.89686493 -159.69636536 256.84373474 C-169.38110615 256.24510078 -178.99678128 255.31862024 -188.63671875 254.22265625 C-190.17510594 254.04943473 -191.71350233 253.8762949 -193.25190735 253.70323181 C-196.44125824 253.34347586 -199.63026762 252.98084861 -202.8190918 252.61645508 C-206.9012411 252.15049567 -210.9844761 251.69487887 -215.06805706 251.24166203 C-218.22991613 250.88909517 -221.39096605 250.52965587 -224.55182838 250.16827202 C-226.05821795 249.99716458 -227.56489088 249.8285323 -229.0718441 249.66246223 C-231.16817697 249.43070558 -233.2631911 249.18934308 -235.3581543 248.94555664 C-236.54757126 248.81089493 -237.73698822 248.67623322 -238.96244812 248.53749084 C-241.71781504 248.04993226 -243.61355831 247.41676523 -246 246 C-236.23875798 244.41153022 -226.45290147 243.17297882 -216.62890625 242.0546875 C-215.09242883 241.87830592 -213.55596568 241.70179998 -212.01951599 241.525177 C-208.8270851 241.15880934 -205.63444621 240.79432551 -202.44165039 240.43115234 C-198.36056629 239.96672524 -194.28012563 239.49688526 -190.19983006 239.02558708 C-187.03876163 238.66117396 -183.87733826 238.29991881 -180.71580315 237.93957901 C-179.21066305 237.76758918 -177.70564162 237.59455746 -176.20074654 237.42043686 C-174.10106564 237.17791289 -172.00093425 236.93973565 -169.90063477 236.70263672 C-168.70962662 236.56654999 -167.51861847 236.43046326 -166.29151917 236.29025269 C-163.17320283 236.01527337 -160.12831183 235.94651823 -157 236 C-156.97421875 235.20980469 -156.9484375 234.41960937 -156.921875 233.60546875 C-156.27637281 220.76877749 -153.65434492 208.30678493 -150 196 C-150.72775635 195.61368408 -151.4555127 195.22736816 -152.20532227 194.8293457 C-165.65285695 187.68188024 -179.05711455 180.48293825 -192.29150391 172.94580078 C-200.14454608 168.47352707 -208.03466457 164.07095049 -215.9375 159.6875 C-216.84884201 159.18186523 -216.84884201 159.18186523 -217.77859497 158.66601562 C-221.18508144 156.77617242 -224.59222658 154.88752149 -228 153 C-223.89408785 151.30719534 -220.28729325 152.78669212 -216.24975586 153.99780273 C-215.47370499 154.22198883 -214.69765411 154.44617493 -213.89808655 154.67715454 C-211.33424501 155.42015227 -208.77468887 156.17695348 -206.21484375 156.93359375 C-204.43441271 157.45166879 -202.65369231 157.96875036 -200.87269592 158.48487854 C-196.1843765 159.84586947 -191.49941078 161.21804669 -186.81524658 162.59326172 C-179.31458987 164.79371313 -171.8094637 166.97882038 -164.30343819 169.16087532 C-161.6792724 169.92574482 -159.05683514 170.69632998 -156.43455505 171.46763611 C-154.83003255 171.93618248 -153.22546643 172.40457949 -151.62084961 172.87280273 C-150.524366 173.19775978 -150.524366 173.19775978 -149.4057312 173.52928162 C-146.49781689 174.37362806 -144.0459025 175 -141 175 C-140.53851563 174.15179688 -140.07703125 173.30359375 -139.6015625 172.4296875 C-135.94611035 165.81754974 -132.08990012 159.45761863 -127.6875 153.3125 C-127.26742676 152.7251709 -126.84735352 152.1378418 -126.41455078 151.53271484 C-124.44266119 148.82404048 -122.47523927 146.26696671 -120 144 C-121.55613416 138.96431119 -124.60727345 135.52432124 -127.9375 131.5625 C-129.12468076 130.12711441 -130.31086264 128.69090214 -131.49609375 127.25390625 C-132.38530518 126.17906982 -132.38530518 126.17906982 -133.29248047 125.08251953 C-135.74391853 122.09270445 -138.12556897 119.0510778 -140.5 116 C-144.45833463 110.92688686 -148.49090252 105.9200996 -152.5625 100.9375 C-157.4159283 94.9967777 -162.14563464 88.9792146 -166.78125 82.8671875 C-168.40426298 80.76984327 -170.05317269 78.76378988 -171.78125 76.7578125 C-174 74 -174 74 -174 72 C-169.83063808 73.75279146 -166.59311568 76.60310647 -163.125 79.4375 C-161.77260262 80.53182763 -160.41972755 81.62556516 -159.06640625 82.71875 C-158.38465332 83.27046875 -157.70290039 83.8221875 -157.00048828 84.390625 C-154.04405439 86.76904973 -151.05395536 89.10339855 -148.0625 91.4375 C-142.9705021 95.41876651 -137.94320303 99.47338461 -132.9375 103.5625 C-123.47525688 111.28622245 -113.79454978 118.70210016 -104 126 C-100.48887827 124.4294514 -97.7076264 122.30598087 -94.6875 119.9375 C-87.27634114 114.29917075 -79.34030991 109.17015495 -71 105 C-72.39794373 96.66807385 -74.74375122 88.63380658 -77.13113976 80.54565811 C-77.83734785 78.15078956 -78.53719767 75.75414452 -79.23530579 73.35690308 C-81.21865584 66.54901368 -83.21034831 59.74360375 -85.21313477 52.94140625 C-86.44286039 48.76317838 -87.66292888 44.58223189 -88.87693214 40.39941025 C-89.3401309 38.81070184 -89.80704467 37.22307165 -90.2777462 35.63656998 C-90.93342685 33.42577796 -91.57680979 31.21174841 -92.2175293 28.99658203 C-92.58678024 27.73878937 -92.95603119 26.4809967 -93.33647156 25.18508911 C-93.95333401 22.2240075 -94.08314475 20.76845408 -93 18 C-92.59386475 18.73710205 -92.18772949 19.4742041 -91.76928711 20.23364258 C-71.11968852 57.74859165 -71.11968852 57.74859165 -50 95 C-45.89652516 95 -42.47689844 94.17900162 -38.5625 93.125 C-29.06614072 90.66382495 -19.84231085 88.94490568 -10 89 C-9.94884033 88.11019943 -9.89768066 87.22039886 -9.8449707 86.30363464 C-9.24861296 76.61568841 -8.30355985 67.00377088 -7.1875 57.36328125 C-7.01173227 55.82491138 -6.83619993 54.2865146 -6.66088867 52.74809265 C-6.29667115 49.55876977 -5.93003865 46.36973728 -5.56152344 43.1809082 C-5.08987709 39.09840563 -4.62386009 35.01528343 -4.15953064 30.93194294 C-3.79951191 27.77045217 -3.43686902 24.6092668 -3.07339478 21.44817162 C-2.90042257 19.94158578 -2.7281933 18.43491445 -2.55673218 16.9281559 C-2.31778969 14.83240677 -2.07538588 12.73708647 -1.83203125 10.6418457 C-1.69514893 9.45242874 -1.5582666 8.26301178 -1.41723633 7.03755188 C-1.08438858 4.61436331 -0.66394415 2.3488381 0 0 Z" transform="translate(250,4)"/><path fill="#FDFDFD" d="M0 0 C2.58093462 1.29046731 2.66870709 2.22090877 3.68554688 4.8815918 C4.00832611 5.71568069 4.33110535 6.54976959 4.66366577 7.40913391 C5.01184357 8.32986191 5.36002136 9.2505899 5.71875 10.19921875 C6.08924469 11.16172043 6.45973938 12.12422211 6.84146118 13.1158905 C8.06727182 16.30404879 9.28351021 19.49577492 10.5 22.6875 C11.77675603 26.01455456 13.05597613 29.34065538 14.3352356 32.66674805 C15.21746617 34.96119131 16.09886247 37.25595552 16.97946167 39.55102539 C21.63611733 51.68198196 26.37694866 63.77958939 31.125 75.875 C32.27768336 78.81177119 33.43014067 81.7486295 34.58163452 84.68586731 C35.26289459 86.42360955 35.94483834 88.16108397 36.62759399 89.89823914 C37.07707901 91.04471672 37.07707901 91.04471672 37.53564453 92.21435547 C37.79588409 92.87708466 38.05612366 93.53981384 38.32424927 94.22262573 C38.9239792 95.80004844 39.46633921 97.39901763 40 99 C42.60564113 92.3547439 45.20949834 85.70879042 47.8125 79.0625 C48.20872559 78.05100891 48.60495117 77.03951782 49.01318359 75.99737549 C53.81663055 63.73225635 58.60297059 51.46074016 63.35546875 39.17578125 C63.78857864 38.05657791 64.22168854 36.93737457 64.66792297 35.78425598 C66.77464099 30.3390914 68.87883751 24.89296901 70.97973633 19.44555664 C71.7468478 17.46107716 72.51401604 15.47661963 73.28125 13.4921875 C73.62943283 12.58692825 73.97761566 11.68166901 74.33634949 10.74897766 C74.82051079 9.49820686 74.82051079 9.49820686 75.31445312 8.22216797 C75.59325317 7.4993161 75.87205322 6.77646423 76.15930176 6.03170776 C77.01398144 3.96621119 77.97633947 1.98645871 79 0 C81.54376323 1.27188161 81.62418173 2.10654173 82.62207031 4.72290039 C82.93213013 5.52519073 83.24218994 6.32748108 83.56164551 7.15408325 C83.89708374 8.04296234 84.23252197 8.93184143 84.578125 9.84765625 C84.93741089 10.78213593 85.29669678 11.7166156 85.66687012 12.67941284 C86.45259905 14.7250513 87.23516566 16.77190645 88.01501465 18.8197937 C90.13161209 24.37735261 92.27090816 29.9261852 94.40625 35.4765625 C94.85570984 36.64688522 95.30516968 37.81720795 95.76824951 39.022995 C101.02192697 52.69009926 106.38517366 66.31374877 111.75 79.9375 C115.16916411 88.62401901 118.58753742 97.31084573 122 106 C122.36988037 106.94159973 122.73976074 107.88319946 123.12084961 108.85333252 C124.12945413 111.42357504 125.13557544 113.9947719 126.140625 116.56640625 C126.43523621 117.31671616 126.72984741 118.06702606 127.03338623 118.84007263 C129 123.88448899 129 123.88448899 129 125 C122.07 125 115.14 125 108 125 C106.02 119.72 104.04 114.44 102 109 C87.15 109 72.3 109 57 109 C55.02 114.28 53.04 119.56 51 125 C43.74 125 36.48 125 29 125 C27.02 119.72 25.04 114.44 23 109 C8.15 109 -6.7 109 -22 109 C-23.98 114.28 -25.96 119.56 -28 125 C-34.6 125 -41.2 125 -48 125 C-47.30906121 121.54530606 -46.68956723 118.9004688 -45.44384766 115.71191406 C-45.12414505 114.88759888 -44.80444244 114.06328369 -44.47505188 113.21398926 C-44.12492538 112.32352905 -43.77479889 111.43306885 -43.4140625 110.515625 C-43.04520432 109.56780151 -42.67634613 108.61997803 -42.29631042 107.64343262 C-41.07627241 104.51081914 -39.85058404 101.38044735 -38.625 98.25 C-37.7712921 96.06039146 -36.91802712 93.87061018 -36.06518555 91.68066406 C-34.28300277 87.10543393 -32.49888671 82.53096476 -30.71337891 77.95703125 C-26.80238385 67.93439429 -22.91226624 57.90366673 -19.02337646 47.87243652 C-17.84868738 44.84331488 -16.67277166 41.81467207 -15.49658203 38.78613281 C-14.7541227 36.8730892 -14.01177027 34.9600041 -13.26953125 33.046875 C-12.91475708 32.13286926 -12.55998291 31.21886353 -12.19445801 30.27716064 C-10.34702118 25.50880507 -8.51670841 20.73455046 -6.70849609 15.95117188 C-6.33947678 14.97593567 -5.97045746 14.00069946 -5.59025574 12.99591064 C-4.88554217 11.13027363 -4.18321781 9.26373191 -3.4835968 7.3961792 C-3.17149765 6.56966858 -2.8593985 5.74315796 -2.5378418 4.89160156 C-2.12709663 3.79697601 -2.12709663 3.79697601 -1.70805359 2.68023682 C-1 1 -1 1 0 0 Z" transform="translate(250,185)"/><path fill="#FDFCFD" d="M0 0 C4.47996623 -0.05008562 8.95977661 -0.08603769 13.43994141 -0.10986328 C14.95852504 -0.11981384 16.47709007 -0.13337916 17.99560547 -0.15087891 C38.01383151 -0.37550587 55.31499903 2.71447583 71 16 C71.72832031 16.61617187 72.45664063 17.23234375 73.20703125 17.8671875 C84.26125001 28.05482315 89.36603481 41.7602431 90.37890625 56.49609375 C91.02319948 72.54500864 87.05996949 87.53751374 76.8125 100.1875 C65.64997226 112.18598797 49.49030409 120.36059508 33.02549744 121.08712769 C30.90299425 121.11468666 28.78278125 121.112675 26.66015625 121.09765625 C25.89319931 121.0962413 25.12624237 121.09482635 24.33604431 121.09336853 C21.9114881 121.08781766 19.48702781 121.07527463 17.0625 121.0625 C15.40820447 121.05747864 13.75390747 121.05291685 12.09960938 121.04882812 C8.06636988 121.03786438 4.03320114 121.02063424 0 121 C2.67414229 116.28841597 2.67414229 116.28841597 4.58039761 114.60119343 C6.41403261 112.53300565 6.38312251 111.43023982 6.40113831 108.69340515 C6.42033073 107.37499634 6.42033073 107.37499634 6.43991089 106.029953 C6.43855133 105.06833755 6.43719177 104.10672211 6.43579102 103.1159668 C6.44586685 102.10104156 6.45594269 101.08611633 6.46632385 100.04043579 C6.49488067 96.67658549 6.50068464 93.31318281 6.50390625 89.94921875 C6.51354299 87.61375238 6.52363513 85.27828784 6.53416443 82.94282532 C6.55214588 78.04265139 6.55768348 73.14263625 6.5559082 68.24243164 C6.55560348 61.96395154 6.59653906 55.68649041 6.64822483 49.40825176 C6.68158853 44.58263985 6.68766573 39.75727406 6.68607903 34.93155861 C6.68961966 32.61708887 6.70289227 30.30261279 6.72607613 27.98825645 C6.75548438 24.74885247 6.74684353 21.51165662 6.72875977 18.2722168 C6.74561829 17.31667404 6.76247681 16.36113129 6.77984619 15.37663269 C6.71225997 10.61038446 6.45208602 7.89566104 2.95445251 4.48298645 C1.97948318 3.66360092 1.00451385 2.84421539 0 2 C0 1.34 0 0.68 0 0 Z" transform="translate(123,189)"/><path fill="#B48FAD" d="M0 0 C11.68470555 0 21.80434143 2.67566801 31 10 C31.886875 10.5775 32.77375 11.155 33.6875 11.75 C41.03663317 18.90050795 45.0003292 28.60323749 45.3515625 38.72558594 C45.49600157 51.58668132 42.98714642 63.15478296 34.21875 73 C24.62640131 82.12059384 12.84428479 85 0 85 C0 56.95 0 28.9 0 0 Z" transform="translate(149,207)"/><path fill="#B590AE" d="M0 0 C2.33435157 3.50152736 3.74466756 7.16312501 5.2578125 11.0625 C5.56572723 11.85019775 5.87364197 12.63789551 6.19088745 13.44946289 C6.83986581 15.11305572 7.48696748 16.77738171 8.13232422 18.44238281 C9.12219622 20.9927761 10.1212769 23.53942907 11.12109375 26.0859375 C11.75056229 27.70290622 12.37948707 29.32008675 13.0078125 30.9375 C13.3077713 31.70006104 13.6077301 32.46262207 13.91677856 33.24829102 C15.09298265 36.30155088 16 38.69828417 16 42 C5.77 42 -4.46 42 -15 42 C-13.87485626 35.24913758 -13.87485626 35.24913758 -12.70898438 32.12182617 C-12.45201782 31.42478073 -12.19505127 30.72773529 -11.93029785 30.00956726 C-11.65423706 29.27808975 -11.37817627 28.54661224 -11.09375 27.79296875 C-10.80898804 27.02696854 -10.52422607 26.26096832 -10.23083496 25.47175598 C-9.63155184 23.86310694 -9.02965815 22.25542827 -8.42529297 20.64868164 C-7.49725922 18.1802098 -6.57808906 15.70857162 -5.66015625 13.23632812 C-5.07603628 11.67168247 -4.49141852 10.10722255 -3.90625 8.54296875 C-3.49215881 7.43057076 -3.49215881 7.43057076 -3.06970215 6.29570007 C-1.11604145 1.11604145 -1.11604145 1.11604145 0 0 Z" transform="translate(329,233)"/><path fill="#B590AE" d="M0 0 C2.33435157 3.50152736 3.74466756 7.16312501 5.2578125 11.0625 C5.56572723 11.85019775 5.87364197 12.63789551 6.19088745 13.44946289 C6.83986581 15.11305572 7.48696748 16.77738171 8.13232422 18.44238281 C9.12219622 20.9927761 10.1212769 23.53942907 11.12109375 26.0859375 C11.75056229 27.70290622 12.37948707 29.32008675 13.0078125 30.9375 C13.3077713 31.70006104 13.6077301 32.46262207 13.91677856 33.24829102 C15.09298265 36.30155088 16 38.69828417 16 42 C5.77 42 -4.46 42 -15 42 C-13.87485626 35.24913758 -13.87485626 35.24913758 -12.70898438 32.12182617 C-12.45201782 31.42478073 -12.19505127 30.72773529 -11.93029785 30.00956726 C-11.65423706 29.27808975 -11.37817627 28.54661224 -11.09375 27.79296875 C-10.80898804 27.02696854 -10.52422607 26.26096832 -10.23083496 25.47175598 C-9.63155184 23.86310694 -9.02965815 22.25542827 -8.42529297 20.64868164 C-7.49725922 18.1802098 -6.57808906 15.70857162 -5.66015625 13.23632812 C-5.07603628 11.67168247 -4.49141852 10.10722255 -3.90625 8.54296875 C-3.49215881 7.43057076 -3.49215881 7.43057076 -3.06970215 6.29570007 C-1.11604145 1.11604145 -1.11604145 1.11604145 0 0 Z" transform="translate(250,233)"/><path fill="#F7F4F7" d="M0 0 C0.99 0.495 0.99 0.495 2 1 C-19.73326713 20.85566306 -46.01993098 27.20223152 -74.890625 26.19091797 C-94.54025545 24.98441585 -115.53996504 15.22060339 -130 2 C-126.10963252 2 -124.7237644 3.3397455 -121.5 5.5 C-98.87630155 20.018319 -70.95924235 26.18297402 -44.49511719 20.46411133 C-28.94463661 16.68687865 -12.33834281 10.51217443 0 0 Z" transform="translate(315,324)"/><path fill="#F8F4F7" d="M0 0 C1.09876465 0.00563965 2.1975293 0.0112793 3.32958984 0.01708984 C27.82535452 0.38022976 49.35950899 9.27142945 67.875 25.3125 C64.20758184 25.3125 63.23253395 24.38088268 60.25 22.3125 C36.53114144 6.91550115 8.12266833 0.07643559 -19.875 5.8125 C-32.74131251 8.70816978 -45.47943727 13.98290132 -56.41015625 21.37890625 C-57.25900391 21.84103516 -57.25900391 21.84103516 -58.125 22.3125 C-58.785 21.9825 -59.445 21.6525 -60.125 21.3125 C-43.03053121 7.3578316 -22.02279521 -0.1187487 0 0 Z" transform="translate(249.125,150.6875)"/><path fill="#F2ECF1" d="M0 0 C3.32330687 1.61471407 6.0727084 3.61119258 9.015625 5.84375 C9.82773437 6.44896484 9.82773437 6.44896484 10.65625 7.06640625 C14.63323692 10.07897384 14.63323692 10.07897384 15.765625 12.34375 C11.96474475 10.51015953 8.30650263 8.42989892 4.640625 6.34375 C4.00769531 5.98796875 3.37476563 5.6321875 2.72265625 5.265625 C0.12833519 3.78945081 -2.11354466 2.46458034 -4.234375 0.34375 C-2.234375 -0.65625 -2.234375 -0.65625 0 0 Z" transform="translate(301.234375,164.65625)"/><path fill="#EDE5EC" d="M0 0 C2.86867231 1.38264837 5.56024032 2.92148553 8.25 4.625 C8.95640625 5.07101562 9.6628125 5.51703125 10.390625 5.9765625 C10.92171875 6.31429688 11.4528125 6.65203125 12 7 C11.34 7.66 10.68 8.32 10 9 C8.33043913 7.69118353 6.66441696 6.37785174 5 5.0625 C4.071875 4.33160156 3.14375 3.60070312 2.1875 2.84765625 C1.465625 2.23792969 0.74375 1.62820313 0 1 C0 0.67 0 0.34 0 0 Z" transform="translate(185,325)"/></svg>