<svg xmlns="http://www.w3.org/2000/svg" xmlns:xlink="http://www.w3.org/1999/xlink" version="1.1"><metadata/><defs><font id="rousseau_decobold" horiz-adv-x="1077"><font-face ascent="1462" descent="-586" units-per-em="2048"/><glyph d="M0 27v1407q0 27 29 26h676q27 0 26 -26v-189q0 -27 -26 -26h-461v-244h338q12 0 20 -9.5t8 -19.5v-188q0 -27 -28 -27h-338v-704q0 -27 -27 -27h-188q-29 0 -29 27zM905 27v1407q0 27 29 26h186q29 0 29 -26v-1407q0 -27 -29 -27h-186q-29 0 -29 27z" horiz-adv-x="1374" unicode="ﬁ"/><glyph d="M0 27q0 -27 29 -27h188q27 0 27 27v704h338q29 0 28 27v188q0 10 -8 19.5t-20 9.5h-338v244h461q27 0 26 26v189q1 26 -26 26h-676q-29 0 -29 -26v-1407zM905 27v1407q0 10 9.5 19t19.5 9h188q10 0 18.5 -9t8.5 -19v-1190h338q29 0 29 -29v-188q0 -27 -29 -27h-553 q-10 0 -19.5 8t-9.5 19z" horiz-adv-x="1710" unicode="ﬂ"/><glyph horiz-adv-x="0"/><glyph horiz-adv-x="0"/><glyph horiz-adv-x="614"/><glyph horiz-adv-x="614"/><glyph horiz-adv-x="614"/><glyph d="M0 131q0 66 46 109t106 43q61 0 107 -43t46 -109q0 -68 -46 -111t-107 -43q-59 0 -105.5 43t-46.5 111zM29 1444q-1 29 26 29h193q29 0 28 -29l-32 -963q0 -29 -29 -28h-127q-10 0 -19.5 8t-9.5 20z" horiz-adv-x="569" unicode="!"/><glyph d="M92 821v617q0 20 21 20h178q20 0 20 -20v-617q0 -20 -20 -20h-178q-20 0 -21 20zM473 821v617q0 20 21 20h178q20 0 20 -20v-617q0 -20 -20 -20h-178q-20 0 -21 20z" horiz-adv-x="866" unicode="&quot;"/><glyph d="M0 434v123q0 27 29 27h145l45 168h-104q-27 -1 -27 28v123q0 27 27 27h149l43 176q8 27 35 27h131q27 0 23 -27l-47 -176h169l46 176q2 10 12 18.5t22 8.5h131q27 0 21 -27l-45 -176h104q29 0 29 -27v-123q0 -29 -29 -28h-149l-43 -168h112q27 0 27 -27l-4 -123 q-4 -29 -29 -28h-151l-41 -162q-8 -29 -35 -29h-131q-27 0 -23 29l41 162h-166l-43 -162q-2 -12 -12 -20.5t-22 -8.5h-131q-10 0 -17.5 8t-3.5 21l41 162h-100q-29 0 -29 28zM362 584h168l43 168h-170z" horiz-adv-x="1138" unicode="#"/><glyph d="M-2 141v240q0 10 6 13t14 -5q16 -18 39 -39.5t31 -27.5q14 -10 30.5 -20.5t35.5 -20.5q20 -10 40.5 -18.5t45.5 -16.5q41 -14 90 -15q92 0 149 64q59 66 60 154q0 70 -50 116q-51 45 -167 107q-35 18 -66 34.5t-55 32.5q-25 16 -49.5 35t-47.5 41q-45 45 -75 111 q-29 63 -29 149q6 88 41 158q39 74 98 125q61 55 142 86q2 0 4 1t4 1v117q0 10 9 18t19 8h146q29 0 29 -26v-93q20 -4 38.5 -7t34.5 -9q27 -8 55.5 -22.5t47.5 -24.5q25 -14 24 -43v-190q0 -10 -6 -14.5t-16 3.5q-29 20 -62 38t-88 34q-16 6 -35.5 8t-38.5 2q-90 0 -147 -55 q-59 -53 -59 -127q0 -68 49 -107q47 -41 160 -94q82 -39 126 -67q51 -29 97 -74q49 -47 80 -117q27 -68 30 -166q0 -90 -37 -166q-37 -82 -100 -141t-149 -94q0 -2 -4 -2v-123q0 -27 -29 -27h-146q-10 0 -19 8.5t-9 18.5v90q-76 4 -133 25q-25 8 -66 31.5t-67 39.5 q-10 6 -17.5 19.5t-7.5 23.5z" horiz-adv-x="976" unicode="$"/><glyph d="M-4 881q0 63 24.5 116.5t65.5 92t96.5 61.5t114.5 23q61 0 115.5 -23t95.5 -61.5t65.5 -92t24.5 -116.5q0 -61 -24.5 -114.5t-65.5 -92.5t-95.5 -61.5t-115.5 -22.5q-59 0 -114.5 22.5t-96.5 61.5t-65.5 92.5t-24.5 114.5zM188 881q0 -51 33 -82t76 -31q45 0 75.5 31 t30.5 82t-30.5 82.5t-75.5 31.5q-43 0 -76 -31.5t-33 -82.5zM248 7q-4 7 0 18l645 1108q14 22 43 22h160q10 0 15 -6t-1 -16l-645 -1108q-6 -10 -18.5 -17.5t-24.5 -7.5h-160q-10 0 -14 7zM760 272q0 63 23.5 116.5t64.5 92.5t95 61.5t116 22.5q59 0 113.5 -22.5t96.5 -61.5 t66.5 -92t24.5 -117q0 -61 -24.5 -114.5t-66.5 -92t-96.5 -61t-113.5 -22.5q-61 0 -115.5 22.5t-95.5 61t-64.5 92t-23.5 114.5zM952 272q0 -51 31 -81.5t76 -30.5t76.5 30.5t31.5 81.5t-31.5 83t-76.5 32t-76 -31.5t-31 -83.5z" horiz-adv-x="2048" unicode="%"/><glyph d="M0 420q0 84 25.5 150.5t73.5 120.5t114 100.5t145 91.5q-66 86 -89 155.5t-23 141.5q0 66 23.5 124t68.5 103t109.5 70.5t146.5 25.5q80 0 142.5 -23.5t106.5 -65.5t66.5 -99.5t22.5 -126.5q0 -102 -67.5 -183t-200.5 -159l282 -363q51 123 53 291q0 29 29 29h158 q27 0 26 -29q-4 -143 -35.5 -262t-84.5 -213l215 -276q8 -10 4 -16.5t-15 -6.5h-223q-27 0 -45 23l-82 104q-86 -72 -190.5 -108.5t-220.5 -36.5q-127 0 -226.5 32.5t-168 91t-104.5 138.5t-36 176zM242 420q0 -106 75.5 -171t219.5 -65q168 0 284 105l-356 456 q-125 -70 -174 -145.5t-49 -179.5zM469 1180q0 -57 22.5 -99.5t57.5 -85.5l8 -12q80 51 118 95t38 110q0 47 -30 83t-89 36q-63 0 -94 -38t-31 -89z" horiz-adv-x="1476" unicode="&amp;"/><glyph d="M0 1309q0 66 46 108.5t108 42.5q59 0 105 -43t46 -108q0 -41 -16.5 -76t-38.5 -74l-107 -176q-14 -23 -43 -22h-63q-25 0 -19 24l68 186q-39 18 -62.5 54.5t-23.5 83.5z" horiz-adv-x="530" unicode="'"/><glyph d="M0 713q0 162 31.5 298t84 248.5t118 203.5t135.5 163q8 8 19 9t22 -7l92 -76q18 -16 4 -39q-61 -76 -111.5 -159.5t-85.5 -182t-54 -212t-19 -246.5q0 -264 73.5 -457t196.5 -344q6 -8 6 -19.5t-10 -19.5l-92 -76q-10 -6 -21.5 -6t-19.5 8q-70 72 -135.5 162t-118 202.5 t-84 249t-31.5 300.5z" horiz-adv-x="696" unicode="("/><glyph d="M-29.5 -115.5q-1.5 11.5 6.5 19.5q121 152 196 344t75 457q0 133 -19.5 246.5t-55.5 212t-85 182.5t-111 159q-18 20 5 39l92 76q10 8 21 7t20 -9q70 -72 135 -162t117.5 -202.5t84 -250t31.5 -298.5q0 -162 -31.5 -298.5t-84 -249t-118 -203.5t-134.5 -163 q-18 -18 -41 -2l-92 76q-10 8 -11.5 19.5z" horiz-adv-x="667" unicode=")"/><glyph d="M2 1079q-6 18 10 25l156 65l-156 64q-18 8 -10 24l68 117q10 14 26 4l129 -104l-20 168q-4 20 16 20h139q20 0 17 -20l-23 -168l131 104q16 10 27 -4l68 -117q8 -16 -11 -24l-159 -64l159 -65q16 -6 11 -25l-68 -114q-10 -16 -27 -7l-129 103l21 -166q4 -20 -17 -21h-139 q-20 0 -16 21l20 166l-129 -103q-16 -10 -26 7z" horiz-adv-x="806" unicode="*"/><glyph d="M0 446v140q0 29 29 28h186v199q0 10 8 19.5t19 9.5h147q12 0 20.5 -9.5t8.5 -19.5v-199h184q29 0 29 -28v-140q0 -29 -29 -28h-184v-199q0 -26 -29 -26h-147q-27 0 -27 26v199h-186q-29 0 -29 28z" horiz-adv-x="856" unicode="+"/><glyph d="M0 137q0 68 46 111t106 43q61 0 107 -43t46 -111q0 -41 -17.5 -74.5t-39.5 -72.5l-105 -176q-14 -25 -43 -25h-63q-12 0 -17.5 8t-1.5 19l66 184q-37 18 -60.5 54t-23.5 83z" horiz-adv-x="530" unicode=","/><glyph d="M0 446v142q0 28 29 28h344q29 0 28 -28v-142q0 -29 -28 -28h-344q-29 0 -29 28z" horiz-adv-x="626" unicode="-"/><glyph d="M0 139q0 66 46 109t108 43q59 0 105 -43t46 -109q0 -68 -46 -110.5t-105 -42.5q-61 0 -107.5 42.5t-46.5 110.5z" horiz-adv-x="530" unicode="."/><glyph d="M-49 -172l608 1774q8 26 37 26h168q12 0 17 -8t1 -18l-606 -1774q-10 -25 -37 -25h-170q-25 0 -18 25z" horiz-adv-x="948" unicode="/"/><glyph d="M0 487v488q0 100 39 189t104.5 154.5t154.5 104.5t189 39t189.5 -39t155 -104.5t104.5 -154.5t39 -189v-488q0 -102 -39 -190t-104.5 -154.5t-154.5 -104.5t-190 -38q-100 0 -189 38t-154.5 104.5t-104.5 154.5t-39 190zM244 487q0 -51 19.5 -95t52 -76.5t76.5 -52 t95 -19.5t95.5 19.5t77 52t52 76.5t19.5 95v488q0 49 -19.5 94t-52 78t-76.5 52.5t-96 19.5q-51 0 -95 -19.5t-76.5 -52.5t-52 -78t-19.5 -94v-488z" horiz-adv-x="1138" unicode="0"/><glyph d="M4 1243l96 193q14 27 41 26h189q10 0 18 -9t8 -19v-1407q0 -27 -26 -27h-189q-29 0 -28 27v1192h-95q-25 0 -14 24z" horiz-adv-x="581" unicode="1"/><glyph d="M-2 1010q6 94 46 178t105.5 147.5t151.5 100.5t182 37q100 0 189.5 -39t156 -106.5t104.5 -157t38 -189.5q0 -121 -64 -229q-20 -31 -41.5 -60.5t-46.5 -58.5l-39 -47q-8 -8 -23.5 -27.5t-37 -45.5t-45 -56.5t-47.5 -61.5q-55 -72 -123 -159l409 2q29 0 29 -27v-184 q0 -27 -29 -27h-862q-27 0 -26 6q0 6 18 29q27 33 82 101.5t122.5 154.5t140.5 176t133.5 166t99 125t41.5 53q45 72 58 119t3 100q-8 39 -31.5 76t-55.5 64.5t-72 44t-81 16.5q-47 0 -89 -17.5t-73.5 -48t-52 -70.5t-26.5 -85q-4 -29 -29 -29h-188q-10 0 -19.5 8t-7.5 21z" horiz-adv-x="1175" unicode="2"/><glyph d="M0 459q0 29 27 28h188q29 0 29 -28q6 -45 26.5 -84t53 -69t74.5 -46t89 -16q49 0 94.5 19.5t78 52t52 76.5t19.5 95q0 49 -19.5 94.5t-52 78t-77.5 52t-95 19.5h-288q-27 0 -13 23l291 465h-350q-27 0 -27 26v189q0 10 8.5 19t18.5 9h729q10 0 14 -7t0 -17l-288 -492 q82 -18 153.5 -59t124.5 -100.5t84 -135.5t31 -164q0 -102 -39 -190t-104.5 -154.5t-154.5 -104.5t-190 -38q-98 0 -184 36t-151.5 97.5t-105.5 145t-46 180.5z" horiz-adv-x="1159" unicode="3"/><glyph d="M-68 287l662 1151q4 10 17.5 17t23.5 7h184q29 0 29 -28v-945h94q27 0 27 -26v-172q0 -29 -27 -29h-94v-233q0 -29 -29 -29h-186q-29 0 -29 29v233h-657q-29 0 -15 25zM313 489h291v574z" horiz-adv-x="1173" unicode="4"/><glyph d="M-2 461q0 27 27 26h188q29 0 29 -26q6 -47 26.5 -86t53 -69t74.5 -46t89 -16q49 0 94.5 19.5t78 52t52 77.5t19.5 94q0 51 -19.5 95.5t-52 77t-77.5 52t-95 19.5h-440q-27 0 -22 29l110 676q4 27 33 26h637q27 0 31 -26l6 -189q2 -12 -6.5 -20t-20.5 -8h-512l-41 -244 h225q100 0 189.5 -38t155 -104.5t104.5 -155.5t39 -190q0 -100 -39 -189t-104.5 -154.5t-154.5 -104.5t-190 -39q-98 0 -184 36t-151.5 98.5t-105.5 146.5t-46 180z" horiz-adv-x="1157" unicode="5"/><glyph d="M0 487q0 141 74 256h-2l467 697q14 23 43 22h237q27 0 12 -22l-325 -486q98 -4 183 -39.5t147.5 -98t99.5 -146.5t37 -183q0 -100 -38 -189t-104.5 -154.5t-156 -104.5t-189.5 -39t-188 39t-154.5 104.5t-104.5 154.5t-38 189zM244 487q0 -49 19.5 -94t52 -77.5t76.5 -52 t93 -19.5q51 0 95.5 19.5t77 52t52 77.5t19.5 94q0 51 -19.5 95.5t-52 77t-76.5 52t-96 19.5q-49 0 -93 -19.5t-76.5 -52t-52 -76.5t-19.5 -96z" horiz-adv-x="1157" unicode="6"/><glyph d="M0 1247v187q0 29 27 28h852h26q0 -4 -2 -8t-3 -9t-3 -9l-500 -1409q-4 -10 -15 -18.5t-24 -8.5h-202q-27 0 -19 27l422 1192h-532q-27 0 -27 28z" horiz-adv-x="1069" unicode="7"/><glyph d="M0 479q0 123 57.5 221.5t153.5 157.5q-41 47 -64.5 108.5t-23.5 131.5q0 76 28.5 142.5t78 115.5t116 77.5t141.5 28.5q76 0 142.5 -28.5t117 -77.5t79 -115.5t28.5 -142.5q0 -70 -24.5 -131.5t-65.5 -108.5q98 -59 154.5 -157.5t56.5 -221.5q0 -98 -38 -186 t-104.5 -152.5t-155.5 -102.5t-190 -38q-100 0 -189 38t-154.5 102.5t-104.5 152.5t-39 186zM244 487q0 -49 19.5 -94t52 -77.5t77.5 -52t94 -19.5q51 0 95.5 19.5t77 52t52 77.5t19.5 94q0 51 -19.5 95.5t-52 77t-76.5 52t-94 19.5h-2q-49 0 -94 -19.5t-77.5 -52t-52 -76.5 t-19.5 -96zM342 1085q0 -57 43 -98t102 -41q61 0 104.5 41t43.5 98t-43.5 98.5t-104.5 41.5q-59 0 -102 -41t-43 -99z" horiz-adv-x="1179" unicode="8"/><glyph d="M0 975q0 100 39 189t104.5 155.5t154.5 104.5t189 38t189.5 -38t156 -104.5t104.5 -155.5t38 -189q0 -143 -76 -254h4l-467 -696q-6 -10 -19.5 -17.5t-23.5 -7.5h-237q-12 0 -16.5 7t3.5 18l324 483q-96 4 -181 41t-148.5 98.5t-100.5 145.5t-37 182zM244 975 q0 -51 19.5 -95t52 -77t76.5 -52.5t95 -19.5t95.5 19.5t77 52.5t52 77t19.5 95t-19.5 95t-52 77t-76.5 52.5t-96 19.5q-51 0 -95 -19.5t-76.5 -52.5t-52 -77t-19.5 -95z" horiz-adv-x="1159" unicode="9"/><glyph d="M0 139q0 66 46 109t108 43q59 0 105 -43t46 -109q0 -68 -46 -110.5t-105 -42.5q-61 0 -107.5 42.5t-46.5 110.5zM0 580q0 66 46 108.5t108 42.5q59 0 105 -43t46 -108q0 -68 -46 -111t-105 -43q-61 0 -107.5 43t-46.5 111z" horiz-adv-x="530" unicode=":"/><glyph d="M0 137q0 66 46 109t108 43q59 0 105 -43t46 -109q0 -41 -16.5 -75.5t-38.5 -73.5l-107 -176q-14 -23 -43 -23h-63q-25 0 -19 25l68 186q-39 18 -62.5 54t-23.5 83zM0 578q0 66 46 108.5t108 42.5q59 0 105 -43t46 -108q0 -68 -46 -111t-105 -43q-61 0 -107.5 43 t-46.5 111z" horiz-adv-x="530" unicode=";"/><glyph d="M0 582q0 4 18 14l537 309q18 8 18 -10v-158q0 -20 -18 -30l-221 -127l221 -127q18 -10 18 -31v-158q0 -18 -18 -10l-537 313q-18 11 -18 15z" horiz-adv-x="798" unicode="&lt;"/><glyph d="M2 293v139q0 29 27 29h575q27 0 27 -29v-139q0 -29 -27 -29h-575q-27 0 -27 29zM2 586v141q0 27 27 27h575q27 0 27 -27v-141q0 -27 -27 -27h-575q-27 0 -27 27z" horiz-adv-x="856" unicode="="/><glyph d="M0 264v158q0 21 18 31l222 127l-222 127q-18 10 -18 30v158q0 18 18 10l537 -313q18 -10 18 -14t-18 -15l-537 -309q-18 -8 -18 10z" horiz-adv-x="798" unicode="&gt;"/><glyph d="M1 1231.5q-3 11.5 3 21.5q29 49 69 92.5t92 76t116.5 52t140.5 19.5q106 0 190 -34t142.5 -91t89 -133t30.5 -162q0 -172 -90 -281.5t-274 -140.5v-180q0 -12 -9 -20.5t-20 -8.5h-157q-29 0 -29 29v336q0 10 8.5 19.5t20.5 9.5h51q72 0 122 19t81.5 53t46 76t14.5 89 q0 43 -14.5 83t-42 69.5t-67.5 48t-91 18.5q-90 0 -144.5 -40t-95.5 -103q-6 -10 -17 -13t-22 3l-131 75q-10 6 -13 17.5zM248 131q0 66 46 109t105 43q61 0 107.5 -43t46.5 -109q0 -68 -46 -111t-108 -43q-59 0 -105 43t-46 111z" horiz-adv-x="1099" unicode="?"/><glyph d="M0 739q0 172 65.5 314.5t176 246t255 160t304.5 56.5q168 0 309 -53.5t243.5 -148.5t160 -226.5t57.5 -288.5q0 -115 -24.5 -199t-69.5 -139t-105.5 -83t-134.5 -28q-188 0 -258 135q-47 -74 -108.5 -102.5t-147.5 -28.5q-70 0 -131.5 28t-106.5 78t-71.5 117.5 t-26.5 147.5t26.5 148.5t71.5 118.5t106.5 79t131.5 29q72 0 118 -22.5t74 -59.5q12 -16 13 4v37q0 20 20 20h178q20 0 21 -20v-422q0 -63 24.5 -90t69.5 -27q53 0 96 65.5t43 209.5q0 131 -41 233t-117.5 171t-184 104.5t-242.5 35.5q-131 0 -238.5 -44t-184.5 -122.5 t-120 -189.5t-43 -244t43 -242.5t123 -188.5t194.5 -123t255.5 -44q74 0 148 12.5t139 43.5q18 8 29 -11l65 -118q12 -18 -8 -27q-78 -43 -171 -59.5t-196 -16.5q-180 0 -332.5 56.5t-263 159t-173 244.5t-62.5 314zM618 725q0 -84 39 -132t115 -48q78 0 118 48t40 132 q0 86 -40 135t-118 49q-76 0 -115 -49t-39 -135z" horiz-adv-x="1796" unicode="@"/><glyph d="M0 29v1007q0 88 34 166t92 135.5t136 91t166 33.5t166 -33.5t135 -91t91 -135.5t34 -166v-1007q0 -10 -8 -19.5t-21 -9.5h-188q-10 0 -18.5 9t-8.5 20v458h-366v-458q0 -10 -8.5 -19.5t-18.5 -9.5h-188q-12 0 -20.5 9t-8.5 20zM244 731h366v305q0 76 -53 129.5t-129 53.5 q-78 0 -131 -53.5t-53 -129.5v-305z" horiz-adv-x="1079" unicode="A"/><glyph d="M0 29v1407q0 27 27 26h338q76 0 142 -28.5t116.5 -77.5t79 -115.5t28.5 -142.5q0 -90 -41 -166q63 -29 115.5 -75t90.5 -103.5t58.5 -125t20.5 -141.5q0 -100 -39 -189t-104.5 -154.5t-154.5 -104.5t-190 -39h-460q-10 0 -18.5 9t-8.5 20zM244 244h243q49 0 94.5 19.5 t78 52t52 77.5t19.5 94q0 51 -19.5 95.5t-52 77t-77.5 52t-95 19.5h-243v-244v-243zM244 975h121q51 0 86.5 36t35.5 87t-35.5 86t-86.5 35h-121v-244z" horiz-adv-x="1169" unicode="B"/><glyph d="M-51 731q0 152 57 285t155.5 232.5t231.5 156.5t285 57q47 0 94 -6q29 -4 29 -31v-192q0 -12 -8.5 -19.5t-18.5 -3.5q-23 4 -47.5 6.5t-48.5 2.5q-100 0 -188.5 -38t-155 -104.5t-104 -156t-37.5 -189.5t37.5 -189t104 -154.5t155 -104.5t188.5 -39q45 0 96 10 q27 4 27 -23v-192q0 -10 -8.5 -20.5t-20.5 -12.5q-23 -2 -46.5 -4t-47.5 -2q-152 0 -285 57.5t-231.5 156.5t-155.5 232.5t-57 284.5z" horiz-adv-x="1005" unicode="C"/><glyph d="M0 29v1405q0 29 29 28h215q152 0 285 -57t232 -156.5t156.5 -232.5t57.5 -285t-57.5 -285t-156.5 -232t-232.5 -156.5t-284.5 -57.5h-215q-12 0 -20.5 9t-8.5 20zM244 244q100 0 189 39t155.5 104.5t104.5 154.5t38 189t-38 189.5t-104.5 156t-155.5 104.5t-189 38v-975z" horiz-adv-x="1148" unicode="D"/><glyph d="M0 29v1407q0 26 29 26h673q29 0 29 -26v-189q0 -29 -29 -28h-458v-244h338q27 0 26 -27v-188q0 -10 -8 -19.5t-18 -9.5h-338v-487h458q29 0 29 -27v-188q0 -10 -8 -19.5t-21 -9.5h-673q-12 0 -20.5 9t-8.5 20z" horiz-adv-x="935" unicode="E"/><glyph d="M0 27v1407q0 27 29 26h676q27 0 26 -26v-189q0 -27 -26 -26h-461v-244h338q12 0 20 -9.5t8 -19.5v-188q0 -27 -28 -27h-338v-704q0 -27 -27 -27h-188q-29 0 -29 27z" horiz-adv-x="905" unicode="F"/><glyph d="M-51 696q0 152 57 285t156.5 231.5t232.5 155.5t285 57q23 0 47 -1t47 -3q10 -2 18.5 -12t8.5 -20v-193q0 -27 -27 -22q-23 4 -46 7t-48 3q-102 0 -190.5 -39t-155 -104.5t-104 -154.5t-37.5 -190q0 -102 37.5 -190t104 -154.5t155 -104.5t190.5 -38v487h-94 q-10 0 -19.5 8.5t-9.5 18.5v188q0 10 9 19.5t20 9.5h309q12 0 20.5 -9t8.5 -20v-919q0 -27 -29 -27h-215q-152 0 -285 57.5t-232.5 157t-156.5 232.5t-57 284z" horiz-adv-x="1148" unicode="G"/><glyph d="M0 27v1407q0 26 29 26h186q29 0 29 -26v-459h364v459q0 27 29 26h188q27 0 27 -26v-1407q0 -27 -27 -27h-188q-29 0 -29 27v704h-364v-704q0 -27 -29 -27h-186q-29 0 -29 27z" unicode="H"/><glyph d="M0 27v1407q0 27 29 26h186q29 0 29 -26v-1407q0 -27 -29 -27h-186q-29 0 -29 27z" horiz-adv-x="468" unicode="I"/><glyph d="M-31 31v188q0 27 21 27h18q96 8 162 76.5t66 166.5v959q0 27 26 27h189q10 0 19 -8.5t9 -18.5v-959q0 -98 -38 -186t-102.5 -154.5t-150.5 -105.5t-184 -41h-18q-16 0 -17 29z" horiz-adv-x="684" unicode="J"/><glyph d="M0 27v1407q0 10 8 19t19 9h188q10 0 19.5 -9t9.5 -19v-478l385 484q18 23 47 22h256q25 0 10 -22l-395 -494l416 -921q10 -25 -17 -25h-211q-12 0 -24.5 7t-16.5 18l-319 706l-131 -166v-538q0 -10 -9.5 -18.5t-19.5 -8.5h-188q-27 0 -27 27z" horiz-adv-x="1140" unicode="K"/><glyph d="M0 27v1407q0 10 9.5 19t19.5 9h188q10 0 18.5 -9t8.5 -19v-1190h338q29 0 28 -29v-188q0 -27 -28 -27h-553q-10 0 -19.5 8t-9.5 19z" horiz-adv-x="804" unicode="L"/><glyph d="M0 27v1407q0 27 29 26h186q12 0 25.5 -5t19.5 -15l227 -301l228 301q6 10 19.5 15t25.5 5h186q29 0 29 -26v-1407q0 -27 -29 -27h-186q-29 0 -29 27v1030l-227 -301q-6 -10 -16.5 -10.5t-16.5 10.5l-227 301v-1030q0 -27 -29 -27h-186q-29 0 -29 27z" horiz-adv-x="1200" unicode="M"/><glyph d="M0 27v1407q0 26 29 26h188q25 0 47 -18l346 -361v353q0 27 27 26h188q29 0 29 -26v-1407q0 -27 -29 -27h-188q-27 0 -27 27v702l-366 381v-1083q0 -27 -27 -27h-188q-29 0 -29 27z" horiz-adv-x="1079" unicode="N"/><glyph d="M-51 731q0 152 57 285t156.5 232.5t232.5 156.5t285 57t285 -57t232 -156.5t156.5 -232.5t57.5 -285t-57.5 -285t-156.5 -232t-232.5 -156.5t-284.5 -57.5q-152 0 -285 57.5t-232.5 156.5t-156.5 232.5t-57 284.5zM193 731q0 -100 38.5 -189t104 -154.5t155 -104.5 t189.5 -39t189 39t155 104.5t104.5 154.5t38.5 189t-38.5 189.5t-104.5 156t-155 104.5t-189 38t-189.5 -38t-155 -104.5t-104 -156t-38.5 -189.5z" horiz-adv-x="1585" unicode="O"/><glyph d="M0 29v1407q0 26 29 26h458q100 0 189.5 -38t156 -104.5t104.5 -155.5t38 -189t-38 -189.5t-104.5 -155t-155.5 -104.5t-190 -39h-243v-458q0 -10 -8.5 -19.5t-18.5 -9.5h-188q-12 0 -20.5 9t-8.5 20zM244 731h243q51 0 95.5 19.5t77 52.5t52 78t19.5 94q0 51 -19.5 95 t-52 77t-77 52.5t-95.5 19.5h-243v-488z" horiz-adv-x="1159" unicode="P"/><glyph d="M-51 731q0 152 57 285t156.5 232.5t232.5 156.5t285 57t285 -57t232 -156.5t156.5 -232.5t57.5 -285q0 -145 -52 -272t-145 -226l179 -210q8 -10 4 -16.5t-15 -6.5h-262q-29 0 -47 23l-53 63q-78 -41 -163 -63.5t-177 -22.5q-152 0 -285 57.5t-232.5 156.5t-156.5 232.5 t-57 284.5zM193 731q0 -100 37.5 -189t104 -154.5t155 -104.5t190.5 -39q92 0 178 35l-160 188q-18 20 4 39l144 121q20 16 39 -2l170 -203q53 63 82.5 142t29.5 167q0 100 -38.5 189.5t-104.5 156t-155 104.5t-189 38q-102 0 -190.5 -38t-155 -104.5t-104 -156 t-37.5 -189.5z" horiz-adv-x="1595" unicode="Q"/><glyph d="M0 29v1407q0 26 29 26h458q100 0 189.5 -38t155 -104.5t104.5 -155.5t39 -189q0 -137 -69.5 -250t-180.5 -176l238 -522q4 -10 -0.5 -18.5t-16.5 -8.5h-211q-12 0 -24.5 8t-16.5 19l-209 460h-241v-458q0 -10 -8.5 -19.5t-20.5 -9.5h-186q-12 0 -20.5 9t-8.5 20zM244 731 h243q51 0 95.5 19.5t77 52.5t52 78t19.5 94q0 51 -19.5 95t-52 77t-77 52.5t-95.5 19.5h-243v-488z" horiz-adv-x="1179" unicode="R"/><glyph d="M-31 135v238q0 25 21 8q16 -16 37.5 -39t31.5 -29q29 -18 66 -39q35 -20 84 -36q23 -6 46.5 -10.5t45.5 -4.5q90 0 150 66q59 66 59 151q0 74 -49 117q-55 49 -170 107q-35 18 -65.5 34.5t-55.5 32.5t-48.5 35.5t-45.5 42.5q-49 45 -76 109q-29 68 -29 149q2 82 41 158 q37 72 99 127q63 53 139 84q78 30 161 30h5q66 -2 121 -18q27 -10 54 -24.5t48 -24.5q10 -4 16.5 -17.5t6.5 -23.5v-191q0 -25 -23 -12q-29 20 -60.5 37.5t-86.5 34.5q-37 12 -76 12q-88 -4 -148 -57q-59 -55 -59 -125q2 -68 49 -109q25 -23 66 -45t96 -49 q39 -18 70.5 -34.5t56.5 -31.5q25 -16 49.5 -34.5t46.5 -40.5q49 -47 78 -115t33 -166q0 -88 -37 -168q-37 -78 -101 -139q-66 -61 -149 -96q-86 -35 -174 -35h-7q-91 0 -159 24q-27 8 -67 33t-66 41q-25 14 -25 43z" horiz-adv-x="948" unicode="S"/><glyph d="M-20 1247v189q-1 26 26 26h676q29 0 29 -26v-189q0 -29 -29 -28h-215v-1190q0 -10 -8 -19.5t-21 -9.5h-188q-10 0 -18.5 9t-8.5 20v1190h-217q-27 0 -26 28z" horiz-adv-x="894" unicode="T"/><glyph d="M0 428v1008q0 10 9 18t20 8h188q27 0 27 -26v-1008q0 -78 53 -131t131 -53q76 0 129 53t53 131v1008q0 27 29 26h186q29 0 29 -26v-1008q0 -88 -34 -166t-91 -136t-135 -92t-166 -34t-166 34t-136 92t-92 136t-34 166z" horiz-adv-x="1079" unicode="U"/><glyph d="M-70 1436q-4 10 3.5 18t19.5 8h194q27 0 35 -26l264 -1108l265 1108q8 27 34 26h197q10 0 17.5 -8t3.5 -18l-373 -1407q-8 -29 -35 -29h-217q-10 0 -20.5 8t-14.5 21z" horiz-adv-x="1118" unicode="V"/><glyph d="M-70 1436q-4 10 3.5 18t17.5 8h196q27 0 35 -26l197 -820l194 820q8 27 35 26h33q12 0 22.5 -8t12.5 -18l196 -820l197 820q2 10 12.5 18t22.5 8h194q29 0 21 -26l-371 -1407q-8 -29 -35 -29h-82q-10 0 -20 8t-14 21l-172 669l-172 -669q-2 -12 -12.5 -20.5t-22.5 -8.5 h-80q-10 0 -20.5 8t-14.5 21z" horiz-adv-x="1474" unicode="W"/><glyph d="M-49 7q-4 7 2 18l416 706l-416 709q-14 23 14 22h226q29 0 43 -24l274 -486l276 486q14 25 41 24h228q29 0 14 -22l-418 -709l418 -706q6 -10 2 -17.5t-16 -7.5h-228q-10 0 -22 7t-19 18l-276 487l-274 -487q-6 -10 -18.5 -17.5t-24.5 -7.5h-226q-12 0 -16 7z" horiz-adv-x="1247" unicode="X"/><glyph d="M-68 1436q-10 25 17 24h209q29 0 39 -24l235 -600l236 600q4 10 15 17t22 7h208q27 0 17 -24l-377 -901v-508q0 -27 -27 -27h-188q-29 0 -29 27v508z" horiz-adv-x="1087" unicode="Y"/><glyph d="M0 27v139q0 10 4 25.5t10 25.5l549 1000h-502q-10 0 -19 9t-9 19v189q0 10 9 18t19 8h801q27 0 27 -26v-134q0 -10 -4 -25t-8 -26l-543 -1005h543q10 0 18 -9.5t8 -19.5v-188q0 -27 -26 -27h-848q-29 0 -29 27z" horiz-adv-x="1128" unicode="Z"/><glyph d="M0 -346v1782q0 20 20 20h398q20 0 20 -20v-148q0 -20 -20 -20h-195v-1446h195q20 0 20 -21v-147q0 -20 -20 -21h-398q-20 0 -20 21z" horiz-adv-x="663" unicode="["/><glyph d="M-49 1602q-4 10 1 18t17 8h168q29 1 37 -26l608 -1774q8 -27 -20 -27h-168q-10 0 -21.5 8.5t-15.5 18.5z" horiz-adv-x="948" unicode="\"/><glyph d="M0 -205q0 21 20 21h193v1446h-193q-20 0 -20 20v148q0 20 20 20h396q20 0 20 -20v-1782q0 -20 -20 -21h-396q-20 0 -20 21v147z" horiz-adv-x="661" unicode="]"/><glyph d="M125 645l352 789h275l352 -789h-240l-250 563l-249 -563h-240z" horiz-adv-x="1228" unicode="^"/><glyph d="M0 -127q0 12 9.5 20.5t19.5 8.5h745q29 0 29 -29v-141q0 -29 -29 -29h-745q-10 0 -19.5 8t-9.5 21v141z" horiz-adv-x="1028" unicode="_"/><glyph d="M-98 1497h321l197 -291h-203z" horiz-adv-x="530" unicode="`"/><glyph d="M0 29v1007q0 88 34 166t92 135.5t136 91t166 33.5t166 -33.5t135 -91t91 -135.5t34 -166v-1007q0 -10 -8 -19.5t-21 -9.5h-188q-10 0 -18.5 9t-8.5 20v458h-366v-458q0 -10 -8.5 -19.5t-18.5 -9.5h-188q-12 0 -20.5 9t-8.5 20zM244 731h366v305q0 76 -53 129.5t-129 53.5 q-78 0 -131 -53.5t-53 -129.5v-305z" horiz-adv-x="1079" unicode="a"/><glyph d="M0 29v1407q0 27 27 26h338q76 0 142 -28.5t116.5 -77.5t79 -115.5t28.5 -142.5q0 -90 -41 -166q63 -29 115.5 -75t90.5 -103.5t58.5 -125t20.5 -141.5q0 -100 -39 -189t-104.5 -154.5t-154.5 -104.5t-190 -39h-460q-10 0 -18.5 9t-8.5 20zM244 244h243q49 0 94.5 19.5 t78 52t52 77.5t19.5 94q0 51 -19.5 95.5t-52 77t-77.5 52t-95 19.5h-243v-244v-243zM244 975h121q51 0 86.5 36t35.5 87t-35.5 86t-86.5 35h-121v-244z" horiz-adv-x="1169" unicode="b"/><glyph d="M-51 731q0 152 57 285t155.5 232.5t231.5 156.5t285 57q47 0 94 -6q29 -4 29 -31v-192q0 -12 -8.5 -19.5t-18.5 -3.5q-23 4 -47.5 6.5t-48.5 2.5q-100 0 -188.5 -38t-155 -104.5t-104 -156t-37.5 -189.5t37.5 -189t104 -154.5t155 -104.5t188.5 -39q45 0 96 10 q27 4 27 -23v-192q0 -10 -8.5 -20.5t-20.5 -12.5q-23 -2 -46.5 -4t-47.5 -2q-152 0 -285 57.5t-231.5 156.5t-155.5 232.5t-57 284.5z" horiz-adv-x="1005" unicode="c"/><glyph d="M0 29v1405q0 29 29 28h215q152 0 285 -57t232 -156.5t156.5 -232.5t57.5 -285t-57.5 -285t-156.5 -232t-232.5 -156.5t-284.5 -57.5h-215q-12 0 -20.5 9t-8.5 20zM244 244q100 0 189 39t155.5 104.5t104.5 154.5t38 189t-38 189.5t-104.5 156t-155.5 104.5t-189 38v-975z" horiz-adv-x="1148" unicode="d"/><glyph d="M0 29v1407q0 26 29 26h673q29 0 29 -26v-189q0 -29 -29 -28h-458v-244h338q27 0 26 -27v-188q0 -10 -8 -19.5t-18 -9.5h-338v-487h458q29 0 29 -27v-188q0 -10 -8 -19.5t-21 -9.5h-673q-12 0 -20.5 9t-8.5 20z" horiz-adv-x="935" unicode="e"/><glyph d="M0 27v1407q0 27 29 26h676q27 0 26 -26v-189q0 -27 -26 -26h-461v-244h338q12 0 20 -9.5t8 -19.5v-188q0 -27 -28 -27h-338v-704q0 -27 -27 -27h-188q-29 0 -29 27z" horiz-adv-x="905" unicode="f"/><glyph d="M-51 696q0 152 57 285t156.5 231.5t232.5 155.5t285 57q23 0 47 -1t47 -3q10 -2 18.5 -12t8.5 -20v-193q0 -27 -27 -22q-23 4 -46 7t-48 3q-102 0 -190.5 -39t-155 -104.5t-104 -154.5t-37.5 -190q0 -102 37.5 -190t104 -154.5t155 -104.5t190.5 -38v487h-94 q-10 0 -19.5 8.5t-9.5 18.5v188q0 10 9 19.5t20 9.5h309q12 0 20.5 -9t8.5 -20v-919q0 -27 -29 -27h-215q-152 0 -285 57.5t-232.5 157t-156.5 232.5t-57 284z" horiz-adv-x="1148" unicode="g"/><glyph d="M0 27v1407q0 26 29 26h186q29 0 29 -26v-459h364v459q0 27 29 26h188q27 0 27 -26v-1407q0 -27 -27 -27h-188q-29 0 -29 27v704h-364v-704q0 -27 -29 -27h-186q-29 0 -29 27z" unicode="h"/><glyph d="M0 27v1407q0 27 29 26h186q29 0 29 -26v-1407q0 -27 -29 -27h-186q-29 0 -29 27z" horiz-adv-x="468" unicode="i"/><glyph d="M-31 31v188q0 27 21 27h18q96 8 162 76.5t66 166.5v959q0 27 26 27h189q10 0 19 -8.5t9 -18.5v-959q0 -98 -38 -186t-102.5 -154.5t-150.5 -105.5t-184 -41h-18q-16 0 -17 29z" horiz-adv-x="684" unicode="j"/><glyph d="M0 27v1407q0 10 8 19t19 9h188q10 0 19.5 -9t9.5 -19v-478l385 484q18 23 47 22h256q25 0 10 -22l-395 -494l416 -921q10 -25 -17 -25h-211q-12 0 -24.5 7t-16.5 18l-319 706l-131 -166v-538q0 -10 -9.5 -18.5t-19.5 -8.5h-188q-27 0 -27 27z" horiz-adv-x="1140" unicode="k"/><glyph d="M0 27v1407q0 10 9.5 19t19.5 9h188q10 0 18.5 -9t8.5 -19v-1190h338q29 0 28 -29v-188q0 -27 -28 -27h-553q-10 0 -19.5 8t-9.5 19z" horiz-adv-x="804" unicode="l"/><glyph d="M0 27v1407q0 27 29 26h186q12 0 25.5 -5t19.5 -15l227 -301l228 301q6 10 19.5 15t25.5 5h186q29 0 29 -26v-1407q0 -27 -29 -27h-186q-29 0 -29 27v1030l-227 -301q-6 -10 -16.5 -10.5t-16.5 10.5l-227 301v-1030q0 -27 -29 -27h-186q-29 0 -29 27z" horiz-adv-x="1200" unicode="m"/><glyph d="M0 27v1407q0 26 29 26h188q25 0 47 -18l346 -361v353q0 27 27 26h188q29 0 29 -26v-1407q0 -27 -29 -27h-188q-27 0 -27 27v702l-366 381v-1083q0 -27 -27 -27h-188q-29 0 -29 27z" horiz-adv-x="1079" unicode="n"/><glyph d="M-41 975q0 102 39 193.5t104.5 159t154.5 106.5t189 39t189.5 -39t155 -106.5t104.5 -159t39 -193.5t-39 -193.5t-104.5 -159t-154.5 -106.5t-190 -39q-100 0 -189 39t-154.5 106.5t-104.5 158.5t-39 194zM33 29v186q0 29 28 29h770q29 0 29 -29v-186q0 -29 -29 -29h-770 q-29 0 -28 29zM203 975q0 -51 19.5 -95t52 -77t76.5 -52.5t95 -19.5t95.5 19.5t77 52.5t52 77t19.5 95t-19.5 95t-52 77t-76.5 52.5t-96 19.5q-51 0 -95 -19.5t-76.5 -52.5t-52 -77t-19.5 -95z" horiz-adv-x="1118" unicode="o"/><glyph d="M0 29v1407q0 26 29 26h458q100 0 189.5 -38t156 -104.5t104.5 -155.5t38 -189t-38 -189.5t-104.5 -155t-155.5 -104.5t-190 -39h-243v-458q0 -10 -8.5 -19.5t-18.5 -9.5h-188q-12 0 -20.5 9t-8.5 20zM244 731h243q51 0 95.5 19.5t77 52.5t52 78t19.5 94q0 51 -19.5 95 t-52 77t-77 52.5t-95.5 19.5h-243v-488z" horiz-adv-x="1159" unicode="p"/><glyph d="M-51 731q0 152 57 285t156.5 232.5t232.5 156.5t285 57t285 -57t232 -156.5t156.5 -232.5t57.5 -285q0 -145 -52 -272t-145 -226l179 -210q8 -10 4 -16.5t-15 -6.5h-262q-29 0 -47 23l-53 63q-78 -41 -163 -63.5t-177 -22.5q-152 0 -285 57.5t-232.5 156.5t-156.5 232.5 t-57 284.5zM193 731q0 -100 37.5 -189t104 -154.5t155 -104.5t190.5 -39q92 0 178 35l-160 188q-18 20 4 39l144 121q20 16 39 -2l170 -203q53 63 82.5 142t29.5 167q0 100 -38.5 189.5t-104.5 156t-155 104.5t-189 38q-102 0 -190.5 -38t-155 -104.5t-104 -156 t-37.5 -189.5z" horiz-adv-x="1595" unicode="q"/><glyph d="M0 27v1407q0 27 27 26h460q100 0 189.5 -38t155 -104.5t104.5 -155.5t39 -189q0 -137 -69.5 -250t-182.5 -174l240 -524q10 -25 -17 -25h-213q-10 0 -22.5 7t-16.5 18l-86 190l-223 490q-10 25 16 24h86q49 0 94.5 19.5t78 52.5t52 78t19.5 94q0 51 -19.5 95t-52 77 t-77.5 52.5t-95 19.5h-243v-1190q0 -10 -9.5 -18.5t-19.5 -8.5h-188q-27 0 -27 27z" horiz-adv-x="1179" unicode="r"/><glyph d="M-61 27v188q0 25 28 29q45 6 84 26.5t69 52t46 73.5t16 89v488q0 98 36 184t97.5 151.5t145.5 105.5t180 46q29 0 29 -26v-189q0 -10 -8.5 -19t-20.5 -9q-92 -10 -153.5 -79t-61.5 -165v-488q0 -96 -36 -182t-97.5 -151.5t-145.5 -105.5t-180 -46q-12 -2 -20 7t-8 20z" horiz-adv-x="833" unicode="s"/><glyph d="M-20 1247v189q-1 26 26 26h676q29 0 29 -26v-189q0 -29 -29 -28h-215v-1190q0 -10 -8 -19.5t-21 -9.5h-188q-10 0 -18.5 9t-8.5 20v1190h-217q-27 0 -26 28z" horiz-adv-x="894" unicode="t"/><glyph d="M0 428v1008q0 10 9 18t20 8h188q27 0 27 -26v-1008q0 -78 53 -131t131 -53q76 0 129 53t53 131v1008q0 27 29 26h186q29 0 29 -26v-1008q0 -88 -34 -166t-91 -136t-135 -92t-166 -34t-166 34t-136 92t-92 136t-34 166z" horiz-adv-x="1079" unicode="u"/><glyph d="M-70 1436q-4 10 3.5 18t19.5 8h194q27 0 35 -26l264 -1108l265 1108q8 27 34 26h197q10 0 17.5 -8t3.5 -18l-373 -1407q-8 -29 -35 -29h-217q-10 0 -20.5 8t-14.5 21z" horiz-adv-x="1118" unicode="v"/><glyph d="M-70 1436q-4 10 3.5 18t17.5 8h196q27 0 35 -26l197 -820l194 820q8 27 35 26h33q12 0 22.5 -8t12.5 -18l196 -820l197 820q2 10 12.5 18t22.5 8h194q29 0 21 -26l-371 -1407q-8 -29 -35 -29h-82q-10 0 -20 8t-14 21l-172 669l-172 -669q-2 -12 -12.5 -20.5t-22.5 -8.5 h-80q-10 0 -20.5 8t-14.5 21z" horiz-adv-x="1474" unicode="w"/><glyph d="M-49 7q-4 7 2 18l416 706l-416 709q-14 23 14 22h226q29 0 43 -24l274 -486l276 486q14 25 41 24h228q29 0 14 -22l-418 -709l418 -706q6 -10 2 -17.5t-16 -7.5h-228q-10 0 -22 7t-19 18l-276 487l-274 -487q-6 -10 -18.5 -17.5t-24.5 -7.5h-226q-12 0 -16 7z" horiz-adv-x="1247" unicode="x"/><glyph d="M-68 1436q-10 25 17 24h209q29 0 39 -24l235 -600l236 600q4 10 15 17t22 7h208q27 0 17 -24l-377 -901v-508q0 -27 -27 -27h-188q-29 0 -29 27v508z" horiz-adv-x="1087" unicode="y"/><glyph d="M0 27v139q0 10 4 25.5t10 25.5l549 1000h-502q-10 0 -19 9t-9 19v189q0 10 9 18t19 8h801q27 0 27 -26v-134q0 -10 -4 -25t-8 -26l-543 -1005h543q10 0 18 -9.5t8 -19.5v-188q0 -27 -26 -27h-848q-29 0 -29 27z" horiz-adv-x="1128" unicode="z"/><glyph d="M0 -182v1771q0 27 27 27h172q27 0 26 -27v-1771q0 -27 -26 -27h-172q-27 0 -27 27z" horiz-adv-x="450" unicode="|"/><glyph d="M0 498v151q0 20 20 21h177q0 16 -1 30.5t-1 30.5t1 30.5t1 31.5h-177q-20 0 -20 20v152q0 20 20 20h220q39 104 107.5 192.5t157.5 151t196.5 98t224.5 35.5q47 0 94 -6q29 -4 29 -31v-194q0 -10 -8.5 -17.5t-20.5 -3.5q-41 9 -94 9q-133 0 -242 -63.5t-174 -170.5h422 q20 0 20 -20v-152q0 -20 -20 -20h-490q-2 -14 -3 -29.5t-1 -32.5q0 -16 1 -30.5t3 -30.5h490q20 0 20 -21v-151q0 -20 -20 -21h-422q66 -104 174.5 -168.5t241.5 -64.5q25 0 48 3t46 7q29 4 29 -23v-192q0 -29 -29 -33q-47 -6 -94 -6q-117 0 -224.5 36t-196.5 98.5 t-157.5 150.5t-107.5 192h-220q-20 0 -20 21z" horiz-adv-x="1273"/><glyph d="M0 1343q0 68 46 110t108 42q59 0 105 -42t46 -110t-46 -110.5t-105 -42.5q-61 0 -107.5 42.5t-46.5 110.5zM29 29l30 964q4 27 31 27h127q25 0 29 -27l30 -964q0 -10 -8 -19.5t-18 -9.5h-193q-12 0 -20 9t-8 20z" horiz-adv-x="569" unicode="¡"/><glyph d="M-51 731q0 152 57 285t155.5 232.5t231.5 156.5t285 57q47 0 94 -6q29 -4 29 -31v-192q0 -12 -8.5 -19.5t-18.5 -3.5q-23 4 -47.5 6.5t-48.5 2.5q-100 0 -188.5 -38t-155 -104.5t-104 -156t-37.5 -189.5t37.5 -189t104 -154.5t155 -104.5t188.5 -39q45 0 96 10 q27 4 27 -23v-192q0 -10 -8.5 -20.5t-20.5 -12.5q-23 -2 -46.5 -4t-47.5 -2q-152 0 -285 57.5t-231.5 156.5t-155.5 232.5t-57 284.5zM389 -182v1771q0 27 27 27h172q27 0 26 -27v-1771q0 -27 -26 -27h-172q-27 0 -27 27z" horiz-adv-x="1005" unicode="¢"/><glyph d="M0 27v1407q0 10 9.5 19t19.5 9h188q10 0 18.5 -9t8.5 -19v-1190h338q29 0 28 -29v-188q0 -27 -28 -27h-553q-10 0 -19.5 8t-9.5 19zM201 850v141q-1 29 28 29h344q29 0 29 -29v-141q0 -29 -29 -29h-344q-29 0 -28 29z" horiz-adv-x="804" unicode="£"/><glyph horiz-adv-x="0" unicode="¤"/><glyph d="M-68 1436q-10 25 17 24h209q29 0 39 -24l235 -600l236 600q4 10 15 17t22 7h208q27 0 17 -24l-377 -901v-508q0 -27 -27 -27h-188q-29 0 -29 27v508zM229 293v139q0 29 27 29h575q27 0 27 -29v-139q0 -29 -27 -29h-575q-27 0 -27 29zM229 586v141q0 27 27 27h575 q27 0 27 -27v-141q0 -27 -27 -27h-575q-27 0 -27 27z" horiz-adv-x="1087" unicode="¥"/><glyph horiz-adv-x="0" unicode="¨"/><glyph d="M0 29v1007q0 88 34 166t92 135.5t136 91t166 33.5t166 -33.5t135 -91t91 -135.5t34 -166v-1007q0 -10 -8 -19.5t-21 -9.5h-188q-10 0 -18.5 9t-8.5 20v458h-366v-458q0 -10 -8.5 -19.5t-18.5 -9.5h-188q-12 0 -20.5 9t-8.5 20zM244 731h366v305q0 76 -53 129.5t-129 53.5 q-78 0 -131 -53.5t-53 -129.5v-305z" horiz-adv-x="1079" unicode="ª"/><glyph horiz-adv-x="0" unicode="«"/><glyph d="M0 446v142q0 28 29 28h344q29 0 28 -28v-142q0 -29 -28 -28h-344q-29 0 -29 28z" horiz-adv-x="626" unicode="­"/><glyph horiz-adv-x="0" unicode="¯"/><glyph d="M0 1217q0 51 20.5 96t55.5 78.5t81 52t99 18.5t100 -18.5t82 -52t55.5 -78.5t20.5 -96t-20.5 -95.5t-55.5 -78t-82 -53t-100 -19.5t-99 19.5t-81 53t-55.5 78t-20.5 95.5zM154 1217q0 -47 28.5 -77t73.5 -30t73.5 30t28.5 77t-28.5 76.5t-73.5 29.5t-73.5 -29.5 t-28.5 -76.5z" horiz-adv-x="739" unicode="°"/><glyph d="M-2 1010q6 94 46 178t105.5 147.5t151.5 100.5t182 37q100 0 189.5 -39t156 -106.5t104.5 -157t38 -189.5q0 -121 -64 -229q-20 -31 -41.5 -60.5t-46.5 -58.5l-39 -47q-8 -8 -23.5 -27.5t-37 -45.5t-45 -56.5t-47.5 -61.5q-55 -72 -123 -159l409 2q29 0 29 -27v-184 q0 -27 -29 -27h-862q-27 0 -26 6q0 6 18 29q27 33 82 101.5t122.5 154.5t140.5 176t133.5 166t99 125t41.5 53q45 72 58 119t3 100q-8 39 -31.5 76t-55.5 64.5t-72 44t-81 16.5q-47 0 -89 -17.5t-73.5 -48t-52 -70.5t-26.5 -85q-4 -29 -29 -29h-188q-10 0 -19.5 8t-7.5 21z" horiz-adv-x="1175" unicode="²"/><glyph d="M0 459q0 29 27 28h188q29 0 29 -28q6 -45 26.5 -84t53 -69t74.5 -46t89 -16q49 0 94.5 19.5t78 52t52 76.5t19.5 95q0 49 -19.5 94.5t-52 78t-77.5 52t-95 19.5h-288q-27 0 -13 23l291 465h-350q-27 0 -27 26v189q0 10 8.5 19t18.5 9h729q10 0 14 -7t0 -17l-288 -492 q82 -18 153.5 -59t124.5 -100.5t84 -135.5t31 -164q0 -102 -39 -190t-104.5 -154.5t-154.5 -104.5t-190 -38q-98 0 -184 36t-151.5 97.5t-105.5 145t-46 180.5z" horiz-adv-x="1159" unicode="³"/><glyph horiz-adv-x="0" unicode="´"/><glyph horiz-adv-x="0" unicode="µ"/><glyph d="M113 588q0 74 52 124t122 50q35 0 65.5 -13.5t54 -37t38 -55t14.5 -68.5q0 -33 -14.5 -63.5t-37 -55.5t-54 -39t-64.5 -14q-37 0 -69 13t-55.5 36.5t-37.5 55.5t-14 67z" horiz-adv-x="569" unicode="·"/><glyph d="M4 1243l96 193q14 27 41 26h189q10 0 18 -9t8 -19v-1407q0 -27 -26 -27h-189q-29 0 -28 27v1192h-95q-25 0 -14 24z" horiz-adv-x="581" unicode="¹"/><glyph d="M0 1217q0 51 20.5 96t55.5 78.5t81 52t99 18.5t100 -18.5t82 -52t55.5 -78.5t20.5 -96t-20.5 -95.5t-55.5 -78t-82 -53t-100 -19.5t-99 19.5t-81 53t-55.5 78t-20.5 95.5zM154 1217q0 -47 28.5 -77t73.5 -30t73.5 30t28.5 77t-28.5 76.5t-73.5 29.5t-73.5 -29.5 t-28.5 -76.5z" horiz-adv-x="739" unicode="º"/><glyph horiz-adv-x="0" unicode="»"/><glyph d="M4 1243q-10 -25 14 -24h95v-1192q0 -27 28 -27h189q27 0 26 27v1407q0 10 -8 19t-18 9h-189q-27 1 -41 -26zM532 -172l609 1774q8 26 37 26h168q12 0 17 -8t1 -18l-606 -1774q-10 -25 -37 -25h-170q-25 0 -19 25zM1462 287q-14 -25 15 -25h657v-233q0 -29 29 -29h186 q29 0 29 29v233h94q27 0 27 29v172q0 27 -27 26h-94v945q0 29 -29 28h-184q-10 0 -23.5 -7t-17.5 -17zM1843 489l291 574v-574h-291z" horiz-adv-x="2703" unicode="¼"/><glyph d="M4 1243q-10 -25 14 -24h95v-1192q0 -27 28 -27h189q27 0 26 27v1407q0 10 -8 19t-18 9h-189q-27 1 -41 -26zM532 -172l609 1774q8 26 37 26h168q12 0 17 -8t1 -18l-606 -1774q-10 -25 -37 -25h-170q-25 0 -19 25zM1528 1010q-2 -12 7 -20.5t19 -8.5h189q25 0 29 29 q6 45 26.5 85t52 70.5t73.5 48t89 17.5q41 0 81 -16.5t72 -44t55.5 -64.5t31.5 -76q10 -53 -3.5 -100t-58.5 -119q-2 -4 -41 -53t-99 -125t-133 -166t-140.5 -176t-123 -154.5t-81.5 -101.5q-18 -23 -19 -29q0 -6 27 -6h862q29 0 29 27v184q0 27 -29 27l-409 -2 q68 88 123 159q25 31 48 61.5t44.5 56.5t37 45.5t23.5 27.5l39 47q25 29 46.5 58.5t41.5 60.5q63 109 64 229q0 100 -38 189.5t-104.5 157t-155.5 106.5t-190 39q-96 0 -182 -37t-151.5 -100.5t-105.5 -147.5t-46 -178z" horiz-adv-x="2705" unicode="½"/><glyph d="M0 459q6 -96 46 -180t105.5 -145.5t151.5 -97.5t184 -36q100 0 189.5 38t155 104.5t104.5 154.5t39 190q0 88 -31 164t-84 135.5t-124.5 100.5t-153.5 59l288 492q4 10 0 17t-14 7h-729q-10 0 -18.5 -9t-8.5 -19v-189q0 -27 27 -26h350l-291 -465q-14 -23 13 -23h288 q49 0 94.5 -19.5t78 -52t52 -77.5t19.5 -95q0 -51 -19.5 -95t-52 -76.5t-77.5 -52t-95 -19.5q-47 0 -89 16t-74.5 46t-53 69t-26.5 84q0 29 -29 28h-188q-27 0 -27 -28zM1110 -172l608 1774q8 26 37 26h168q12 0 17.5 -8t1.5 -18l-607 -1774q-10 -25 -37 -25h-170 q-25 0 -18 25zM2040 287q-14 -25 14 -25h658v-233q0 -29 28 -29h187q29 0 28 29v233h94q27 0 27 29v172q0 27 -27 26h-94v945q0 29 -28 28h-185q-10 0 -23.5 -7t-17.5 -17zM2421 489l291 574v-574h-291z" horiz-adv-x="3280" unicode="¾"/><glyph d="M0 401q0 170 91 280t276 140v180q0 29 28 29h158q27 0 27 -29v-335q0 -27 -27 -27h-51q-74 0 -124 -20.5t-82 -53.5t-46 -76t-14 -88q0 -43 15 -82.5t43 -70.5t67.5 -49.5t91.5 -18.5q88 0 143 40t96 104q14 25 39 10l131 -76q10 -6 13.5 -17.5t-3.5 -21.5 q-29 -49 -68.5 -92t-92 -76t-117 -52t-139.5 -19q-109 0 -193 33.5t-142.5 91t-89 134t-30.5 162.5zM324 1341q0 68 46 111t105 43q61 0 107.5 -43t46.5 -111q0 -66 -46 -108.5t-108 -42.5q-59 0 -105 43t-46 108z" horiz-adv-x="1101" unicode="¿"/><glyph d="M2 29v1007q0 88 34 166t91 135.5t135 91t166 33.5t166 -33.5t135 -91t91 -135.5t34 -166v-1007q0 -29 -29 -29h-186q-29 0 -29 29v458h-364v-458q0 -12 -9.5 -20.5t-19.5 -8.5h-188q-27 0 -27 29zM178 1892q-10 19 10 19h205q23 0 27 -21l96 -291q6 -20 -14 -20h-129 q-20 0 -29 18zM246 731h364v305q0 76 -53 129.5t-129 53.5t-129 -53.5t-53 -129.5v-305z" horiz-adv-x="1079" unicode="À"/><glyph d="M0 29v1007q0 88 34 166t91 135.5t135 91t166 33.5t166 -33.5t135 -91t91 -135.5t34 -166v-1007q0 -29 -27 -29h-188q-29 0 -29 29v458h-364v-458q0 -29 -29 -29h-186q-29 0 -29 29zM244 731h364v305q0 76 -53 129.5t-129 53.5t-129 -53.5t-53 -129.5v-305zM342 1599 l96 291q7 21 27 21h207q18 0 10 -19l-166 -295q-10 -18 -31 -18h-129q-18 0 -14 20z" unicode="Á"/><glyph d="M0 29v1007q0 88 34 166t91 135.5t135 91t166 33.5t166 -33.5t135 -91t91 -135.5t34 -166v-1007q0 -29 -29 -29h-186q-29 0 -29 29v458h-364v-458q0 -29 -29 -29h-188q-27 0 -27 29zM152 1602l256 301q10 14 18 14t18 -14l254 -301q6 -6 4 -11.5t-10 -5.5h-131 q-23 0 -37 14l-98 80l-98 -80q-14 -14 -37 -14h-131q-20 0 -8 17zM244 731h364v305q0 76 -53 129.5t-129 53.5t-129 -53.5t-53 -129.5v-305z" unicode="Â"/><glyph d="M0 29v1007q0 88 34 166t91 135.5t135 91t166 33.5t166 -33.5t135 -91t91 -135.5t34 -166v-1007q0 -29 -27 -29h-188q-29 0 -29 29v458h-364v-458q0 -29 -29 -29h-186q-29 0 -29 29zM104 1640q18 94 68.5 148.5t122.5 54.5q39 0 75 -9t65.5 -19.5t55 -19.5t48.5 -9 q41 0 57 45q8 20 27 16l108 -14q20 -4 17 -23q-18 -94 -68.5 -148t-122.5 -54q-41 0 -76 9t-64.5 19.5t-56 19.5t-47.5 9q-41 0 -57 -45q-8 -20 -27 -16l-108 14q-20 4 -17 22zM244 731h364v305q0 76 -53 129.5t-129 53.5t-129 -53.5t-53 -129.5v-305z" unicode="Ã"/><glyph d="M0 29v1007q0 88 34 166t91 135.5t135 91t166 33.5t166 -33.5t135 -91t91 -135.5t34 -166v-1007q0 -29 -27 -29h-188q-10 0 -19.5 8t-9.5 21v458h-364v-458q0 -29 -29 -29h-186q-29 0 -29 29zM82 1587v203q0 20 20 20h203q20 0 21 -20v-203q-1 -20 -21 -20h-203 q-20 0 -20 20zM244 731h364v305q0 76 -52 129.5t-130 53.5q-76 0 -129 -53.5t-53 -129.5v-305zM528 1587v203q0 20 21 20h203q20 0 20 -20v-203q0 -20 -20 -20h-203q-20 0 -21 20z" unicode="Ä"/><glyph d="M0 29v1007q0 88 34 166t92 135.5t136 91t166 33.5t166 -33.5t135 -91t91 -135.5t34 -166v-1007q0 -10 -8 -19.5t-21 -9.5h-188q-10 0 -18.5 9t-8.5 20v458h-366v-458q0 -10 -8.5 -19.5t-18.5 -9.5h-188q-12 0 -20.5 9t-8.5 20zM244 731h366v305q0 76 -53 129.5t-129 53.5 q-78 0 -131 -53.5t-53 -129.5v-305z" horiz-adv-x="1079" unicode="Å"/><glyph d="M0 29v1007q0 88 34 166t91 135.5t135 91t166 33.5q98 0 184 -41v13q0 29 27 28h676q29 0 28 -28v-189q0 -27 -28 -26h-459v-183v-61h336q29 0 29 -29v-186q0 -29 -29 -29h-336v-487h459q29 0 28 -29v-186q0 -29 -28 -29h-676q-27 0 -27 29v458h-366v-458q0 -29 -27 -29 h-188q-29 0 -29 29zM244 731h366v305q0 76 -53 129.5t-131 53.5q-76 0 -129 -53.5t-53 -129.5v-305z" horiz-adv-x="1546" unicode="Æ"/><glyph d="M-51 735q0 152 57 285t156.5 232.5t232.5 156.5t285 57q47 0 94 -6q10 -2 19.5 -11t9.5 -19v-195q0 -10 -8.5 -17.5t-20.5 -3.5q-41 8 -94 9q-100 0 -189.5 -38t-155 -104.5t-104 -155.5t-38.5 -190q0 -100 38.5 -189t104 -154.5t155 -104.5t189.5 -39q25 0 48.5 3 t45.5 7q29 4 29 -22v-193q0 -12 -9.5 -21.5t-19.5 -11.5q-47 -6 -94 -6q-43 0 -86 6v-76q66 -10 107.5 -53t41.5 -121q0 -39 -16 -70.5t-42 -53t-59.5 -33t-68.5 -11.5q-68 0 -113 24t-73 58q-8 10 -5 20.5t13 16.5l63 39q10 6 20.5 3t18.5 -11q18 -23 58 -23q25 0 42 13.5 t17 42.5q0 59 -68 59h-32q-27 0 -27 29v172q-115 33 -210 100.5t-164.5 159.5t-108.5 204.5t-39 235.5z" horiz-adv-x="1007" unicode="Ç"/><glyph d="M0 29v1407q0 26 29 26h673q29 0 29 -26v-189q0 -29 -29 -28h-458v-244h338q27 0 26 -27v-188q0 -29 -26 -29h-338v-487h458q29 0 29 -27v-188q0 -29 -29 -29h-673q-29 0 -29 29zM125 1892q-10 18 10 19h205q20 0 27 -21l96 -291q6 -20 -14 -20h-130q-20 0 -30 18z" horiz-adv-x="935" unicode="È"/><glyph d="M2 29v1407q0 26 29 26h676q27 0 26 -26v-189q0 -29 -26 -28h-461v-244h338q29 0 28 -27v-188q0 -29 -28 -29h-338v-487h461q27 0 26 -27v-188q0 -29 -26 -29h-676q-29 0 -29 29zM238 1599l96 291q6 21 26 21h205q20 0 13 -19l-166 -295q-10 -18 -31 -18h-129 q-20 0 -14 20z" horiz-adv-x="937" unicode="É"/><glyph d="M0 29v1407q0 10 9.5 18t19.5 8h676q27 0 26 -26v-189q0 -29 -26 -28h-461v-244h338q29 0 28 -27v-188q0 -29 -28 -29h-338v-487h461q27 0 26 -27v-188q0 -29 -26 -29h-676q-10 0 -19.5 8t-9.5 21zM90 1590q-2 5 4 12l254 301q11 14 19 14t18 -14l254 -301q6 -6 4 -11.5 t-10 -5.5h-131q-23 0 -37 14l-98 80l-99 -80q-14 -14 -37 -14h-131q-8 0 -10 5z" horiz-adv-x="935" unicode="Ê"/><glyph d="M0 29v1407q0 10 9.5 18t19.5 8h676q27 0 26 -26v-189q0 -29 -26 -28h-461v-244h338q29 0 28 -27v-188q0 -29 -28 -29h-338v-487h461q27 0 26 -27v-188q0 -29 -26 -29h-676q-10 0 -19.5 8t-9.5 21zM20 1587v203q0 20 21 20h203q20 0 20 -20v-203q0 -20 -20 -20h-203 q-20 0 -21 20zM469 1587v203q0 20 20 20h203q20 0 21 -20v-203q-1 -20 -21 -20h-203q-20 0 -20 20z" horiz-adv-x="935" unicode="Ë"/><glyph d="M-121 1892q-10 18 10 19h205q23 0 27 -21l96 -291q6 -20 -14 -20h-129q-20 0 -29 18zM0 29v1407q0 27 29 26h186q29 0 29 -26v-1407q0 -29 -29 -29h-186q-29 0 -29 29z" horiz-adv-x="468" unicode="Ì"/><glyph d="M0 29q0 -12 9.5 -20.5t19.5 -8.5h188q27 0 27 29v1407q0 27 -27 26h-188q-10 0 -19.5 -8t-9.5 -18v-1407zM27 1599l96 291q7 21 27 21h206q18 0 11 -19l-166 -295q-10 -18 -31 -18h-129q-20 0 -14 20z" horiz-adv-x="471" unicode="Í"/><glyph d="M-152 1602l254 301q15 14 21 14q4 0 18 -14l254 -301q14 -14 -6 -15h-133q-8 0 -18.5 3t-16.5 9l-98 80l-98 -80q-16 -12 -37 -12h-131q-18 0 -9 15zM0 29q0 -10 8.5 -19.5t20.5 -9.5h186q12 0 20.5 9t8.5 20v1407q0 27 -29 26h-186q-29 0 -29 -26v-1407z" horiz-adv-x="462" unicode="Î"/><glyph d="M-225 1587v203q0 20 20 20h203q20 0 20 -20v-203q0 -20 -20 -20h-203q-20 0 -20 20zM0 29q0 -10 8.5 -19.5t18.5 -9.5h188q12 0 20.5 9t8.5 20v1407q0 27 -29 26h-188q-27 0 -27 -26v-1407zM223 1587v203q0 20 21 20h202q20 0 21 -20v-203q-1 -20 -21 -20h-202 q-20 0 -21 20z" horiz-adv-x="487" unicode="Ï"/><glyph d="M-76 657v142q0 28 29 28h344q29 0 29 -28v-142q0 -29 -29 -28h-344q-29 0 -29 28zM0 29v1405q0 29 29 28h215q152 0 285 -57t232 -156.5t156.5 -232.5t57.5 -285t-57.5 -285t-156.5 -232t-232.5 -156.5t-284.5 -57.5h-215q-12 0 -20.5 9t-8.5 20zM244 244q100 0 189 39 t155.5 104.5t104.5 154.5t38 189t-38 189.5t-104.5 156t-155.5 104.5t-189 38v-975z" horiz-adv-x="1148" unicode="Ð"/><glyph d="M0 29v1407q0 26 27 26h188q12 0 25.5 -5t21.5 -15l346 -359v353q0 27 29 26h186q29 0 29 -26v-1407q0 -29 -29 -29h-186q-29 0 -29 29v702l-364 379v-1081q0 -29 -29 -29h-188q-27 0 -27 29zM104 1640q16 94 67.5 148.5t123.5 54.5q39 0 73.5 -9t65.5 -19.5t56.5 -19.5 t48.5 -9q41 0 57 45q8 20 27 16l108 -14q20 -4 17 -23q-18 -94 -68.5 -148t-122.5 -54q-41 0 -76 9t-64.5 19.5t-56 19.5t-47.5 9q-41 0 -57 -45q-8 -20 -27 -16l-108 14q-20 4 -17 22z" unicode="Ñ"/><glyph d="M-51 729q0 152 57 285t156.5 232.5t232.5 156.5t285 57t285 -57t232 -156.5t156.5 -232.5t57.5 -285t-57.5 -285t-156.5 -232t-232.5 -156.5t-284.5 -57.5q-152 0 -285 57.5t-232.5 156.5t-156.5 232.5t-57 284.5zM193 729q0 -100 38.5 -189t104 -155t155 -104.5 t189.5 -38.5t189 38.5t156 104.5t104.5 155t37.5 189t-37.5 189.5t-104.5 156t-156 104.5t-189 38t-189.5 -38t-155 -104.5t-104 -156t-38.5 -189.5zM451 1890q-8 18 12 19h205q20 0 26 -21l97 -291q6 -20 -15 -20h-129q-20 0 -31 18z" horiz-adv-x="1585" unicode="Ò"/><glyph d="M-51 731q0 152 57 285t156.5 232.5t232.5 156.5t285 57t285 -57t232 -156.5t156.5 -232.5t57.5 -285t-57.5 -285t-156.5 -232t-232.5 -156.5t-284.5 -57.5q-152 0 -285 57.5t-232.5 156.5t-156.5 232.5t-57 284.5zM193 731q0 -100 38.5 -189t104 -154.5t155 -104.5 t189.5 -39t189 39t156 104.5t104.5 154.5t37.5 189t-37.5 189.5t-104.5 156t-156 104.5t-189 38t-189.5 -38t-155 -104.5t-104 -156t-38.5 -189.5zM571 1599l97 293q3 19 26 19h205q20 0 10 -19l-166 -295q-8 -18 -28 -18h-129q-23 0 -15 20z" horiz-adv-x="1585" unicode="Ó"/><glyph d="M-51 731q0 152 57 285t156.5 232.5t232.5 156.5t285 57t285 -57t232 -156.5t156.5 -232.5t57.5 -285t-57.5 -285t-156.5 -232t-232.5 -156.5t-284.5 -57.5q-152 0 -285 57.5t-232.5 156.5t-156.5 232.5t-57 284.5zM193 731q0 -100 38.5 -189t104 -154.5t155 -104.5 t189.5 -39t189 39t156 104.5t104.5 154.5t37.5 189t-37.5 189.5t-104.5 156t-156 104.5t-189 38t-189.5 -38t-155 -104.5t-104 -156t-38.5 -189.5zM406 1602l253 301q15 14 21 14q4 0 18 -14l254 -301q14 -14 -6 -15h-133q-8 0 -18.5 3t-16.5 9l-98 80l-100 -80 q-6 -6 -16.5 -9t-18.5 -3h-131q-18 0 -8 15z" horiz-adv-x="1585" unicode="Ô"/><glyph d="M-51 731q0 152 57 285t156.5 232.5t232.5 156.5t285 57t285 -57t232 -156.5t156.5 -232.5t57.5 -285t-57.5 -285t-156.5 -232t-232.5 -156.5t-284.5 -57.5q-152 0 -285 57.5t-232.5 156.5t-156.5 232.5t-57 284.5zM193 731q0 -100 37.5 -189t104 -154.5t155 -104.5 t190.5 -39q100 0 189 39t155 104.5t104.5 154.5t38.5 189t-38.5 189.5t-104.5 156t-155 104.5t-189 38q-102 0 -190.5 -38t-155 -104.5t-104 -156t-37.5 -189.5zM358 1640q16 94 67.5 148.5t123.5 54.5q39 0 73.5 -9t65.5 -19.5t56.5 -19.5t48.5 -9q41 0 57 45q8 20 27 16 l106 -14q23 -4 18 -23q-18 -92 -68 -147t-122 -55q-41 0 -76 9t-64.5 19.5t-56 19.5t-47.5 9q-41 0 -57 -45q-6 -16 -27 -16l-108 14q-20 4 -17 22z" horiz-adv-x="1585" unicode="Õ"/><glyph d="M-51 731q0 152 57 285t156.5 232.5t232.5 156.5t285 57t285 -57t232 -156.5t156.5 -232.5t57.5 -285t-57.5 -285t-156.5 -232t-232.5 -156.5t-284.5 -57.5q-152 0 -285 57.5t-232.5 156.5t-156.5 232.5t-57 284.5zM193 731q0 -100 38.5 -189t104 -154.5t155 -104.5 t189.5 -39t189 39t156 104.5t104.5 154.5t37.5 189t-37.5 189.5t-104.5 156t-156 104.5t-189 38t-189.5 -38t-155 -104.5t-104 -156t-38.5 -189.5zM336 1587v203q0 20 20 20h203q20 0 21 -20v-203q-1 -20 -21 -20h-203q-20 0 -20 20zM782 1587v203q0 20 21 20h203 q20 0 20 -20v-203q0 -20 -20 -20h-203q-20 0 -21 20z" horiz-adv-x="1585" unicode="Ö"/><glyph d="M-51 731q0 152 57 285t156.5 232.5t232.5 156.5t285 57t285 -57t232 -156.5t156.5 -232.5t57.5 -285t-57.5 -285t-156.5 -232t-232.5 -156.5t-284.5 -57.5q-152 0 -285 57.5t-232.5 156.5t-156.5 232.5t-57 284.5zM193 731q0 -100 38.5 -189t104 -154.5t155 -104.5 t189.5 -39t189 39t155 104.5t104.5 154.5t38.5 189t-38.5 189.5t-104.5 156t-155 104.5t-189 38t-189.5 -38t-155 -104.5t-104 -156t-38.5 -189.5zM375 -172l608 1774q8 26 37 26h168q12 0 17 -8t1 -18l-606 -1774q-10 -25 -37 -25h-170q-25 0 -18 25z" horiz-adv-x="1585" unicode="Ø"/><glyph d="M0 426v1008q0 29 29 28h186q29 0 29 -28v-1008q0 -76 53 -129t129 -53t129 53t53 129v1008q0 12 9.5 20t19.5 8h188q27 0 27 -28v-1008q0 -88 -34 -166t-91 -135t-135 -91t-166 -34t-166 34t-135 91t-91 135t-34 166zM213 1892q-8 18 10 19h207q20 0 27 -21l96 -291 q4 -20 -14 -20h-129q-20 0 -31 18z" unicode="Ù"/><glyph d="M0 428q0 -88 34 -166t91 -136t135 -92t166 -34t166 34t135 92t91 136t34 166v1008q0 27 -27 26h-188q-29 0 -29 -26v-1008q0 -78 -53 -131t-129 -53t-129 53t-53 131v1008q0 26 -29 26h-186q-29 0 -29 -26v-1008zM301 1599l94 293q9 19 29 19h205q20 0 10 -19l-166 -295 q-8 -18 -31 -18h-129q-20 0 -12 20z" unicode="Ú"/><glyph d="M0 428q0 -88 34 -166t92 -136t136 -92t166 -34t166 34t135 92t91 136t34 166v1008q0 27 -29 26h-186q-29 0 -29 -26v-1008q0 -78 -53 -131t-129 -53q-78 0 -131 53t-53 131v1008q0 26 -27 26h-188q-10 0 -19.5 -8t-9.5 -18v-1008zM154 1602l256 301q10 14 18 14 q4 0 18 -14l254 -301q14 -14 -6 -15h-131q-10 0 -20.5 3t-16.5 9l-98 80l-98 -80q-16 -12 -37 -12h-131q-18 0 -8 15z" horiz-adv-x="1079" unicode="Û"/><glyph d="M0 428q0 -88 34 -166t91 -136t135 -92t166 -34t166 34t135 92t91 136t34 166v1008q0 27 -27 26h-188q-10 0 -19.5 -8t-9.5 -18v-1008q0 -78 -53 -131t-129 -53t-129 53t-53 131v1008q0 26 -29 26h-186q-29 0 -29 -26v-1008zM82 1587v203q0 20 20 20h203q20 0 21 -20v-203 q-1 -20 -21 -20h-203q-20 0 -20 20zM528 1587v203q0 20 21 20h203q20 0 20 -20v-203q0 -20 -20 -20h-203q-20 0 -21 20z" unicode="Ü"/><glyph d="M-68 1436q-10 25 17 24h209q29 0 39 -24l235 -600l236 600q4 10 15 17t22 7h208q27 0 17 -24l-377 -901v-508q0 -27 -27 -27h-188q-29 0 -29 27v508z" horiz-adv-x="1087" unicode="Ý"/><glyph horiz-adv-x="0" unicode="Þ"/><glyph d="M0 29v1190v2q0 49 19.5 93t52 76.5t77 52t93.5 19.5h2h123q76 0 142 -28.5t115.5 -78.5t78 -117t28.5 -142q0 -88 -39 -166q61 -29 113.5 -74t90.5 -102.5t58.5 -125t20.5 -141.5q0 -102 -38 -190t-104.5 -154.5t-155.5 -104.5t-190 -38h-106q-29 0 -29 29v186 q0 29 29 29h106q51 0 95.5 19.5t77 52t52 76.5t19.5 95t-19.5 95.5t-52 77t-76.5 52t-96 19.5h-106q-29 0 -29 27v188q0 29 8 29h7q51 0 85.5 34.5t34.5 86.5q0 51 -34.5 87t-85.5 36h-76q-20 -6 -33.5 -21.5t-13.5 -38.5v-1130q0 -29 -27 -29h-188q-29 0 -29 29z" horiz-adv-x="1169" unicode="ß"/><glyph d="M2 29v1007q0 88 34 166t91 135.5t135 91t166 33.5t166 -33.5t135 -91t91 -135.5t34 -166v-1007q0 -29 -29 -29h-186q-29 0 -29 29v458h-364v-458q0 -12 -9.5 -20.5t-19.5 -8.5h-188q-27 0 -27 29zM178 1892q-10 19 10 19h205q23 0 27 -21l96 -291q6 -20 -14 -20h-129 q-20 0 -29 18zM246 731h364v305q0 76 -53 129.5t-129 53.5t-129 -53.5t-53 -129.5v-305z" horiz-adv-x="1079" unicode="à"/><glyph d="M0 29v1007q0 88 34 166t91 135.5t135 91t166 33.5t166 -33.5t135 -91t91 -135.5t34 -166v-1007q0 -29 -27 -29h-188q-29 0 -29 29v458h-364v-458q0 -29 -29 -29h-186q-29 0 -29 29zM244 731h364v305q0 76 -53 129.5t-129 53.5t-129 -53.5t-53 -129.5v-305zM342 1599 l96 291q7 21 27 21h207q18 0 10 -19l-166 -295q-10 -18 -31 -18h-129q-18 0 -14 20z" unicode="á"/><glyph d="M0 29v1007q0 88 34 166t91 135.5t135 91t166 33.5t166 -33.5t135 -91t91 -135.5t34 -166v-1007q0 -29 -29 -29h-186q-29 0 -29 29v458h-364v-458q0 -29 -29 -29h-188q-27 0 -27 29zM152 1602l256 301q10 14 18 14t18 -14l254 -301q6 -6 4 -11.5t-10 -5.5h-131 q-23 0 -37 14l-98 80l-98 -80q-14 -14 -37 -14h-131q-20 0 -8 17zM244 731h364v305q0 76 -53 129.5t-129 53.5t-129 -53.5t-53 -129.5v-305z" unicode="â"/><glyph d="M0 29v1007q0 88 34 166t91 135.5t135 91t166 33.5t166 -33.5t135 -91t91 -135.5t34 -166v-1007q0 -29 -27 -29h-188q-29 0 -29 29v458h-364v-458q0 -29 -29 -29h-186q-29 0 -29 29zM104 1640q18 94 68.5 148.5t122.5 54.5q39 0 75 -9t65.5 -19.5t55 -19.5t48.5 -9 q41 0 57 45q8 20 27 16l108 -14q20 -4 17 -23q-18 -94 -68.5 -148t-122.5 -54q-41 0 -76 9t-64.5 19.5t-56 19.5t-47.5 9q-41 0 -57 -45q-8 -20 -27 -16l-108 14q-20 4 -17 22zM244 731h364v305q0 76 -53 129.5t-129 53.5t-129 -53.5t-53 -129.5v-305z" unicode="ã"/><glyph d="M0 29v1007q0 88 34 166t91 135.5t135 91t166 33.5t166 -33.5t135 -91t91 -135.5t34 -166v-1007q0 -29 -27 -29h-188q-10 0 -19.5 8t-9.5 21v458h-364v-458q0 -29 -29 -29h-186q-29 0 -29 29zM82 1587v203q0 20 20 20h203q20 0 21 -20v-203q-1 -20 -21 -20h-203 q-20 0 -20 20zM244 731h364v305q0 76 -52 129.5t-130 53.5q-76 0 -129 -53.5t-53 -129.5v-305zM528 1587v203q0 20 21 20h203q20 0 20 -20v-203q0 -20 -20 -20h-203q-20 0 -21 20z" unicode="ä"/><glyph d="M0 29v1007q0 88 34 166t92 135.5t136 91t166 33.5t166 -33.5t135 -91t91 -135.5t34 -166v-1007q0 -10 -8 -19.5t-21 -9.5h-188q-10 0 -18.5 9t-8.5 20v458h-366v-458q0 -10 -8.5 -19.5t-18.5 -9.5h-188q-12 0 -20.5 9t-8.5 20zM244 731h366v305q0 76 -53 129.5t-129 53.5 q-78 0 -131 -53.5t-53 -129.5v-305z" horiz-adv-x="1079" unicode="å"/><glyph d="M0 29v1007q0 88 34 166t91 135.5t135 91t166 33.5q98 0 184 -41v13q0 29 27 28h676q29 0 28 -28v-189q0 -27 -28 -26h-459v-183v-61h336q29 0 29 -29v-186q0 -29 -29 -29h-336v-487h459q29 0 28 -29v-186q0 -29 -28 -29h-676q-27 0 -27 29v458h-366v-458q0 -29 -27 -29 h-188q-29 0 -29 29zM244 731h366v305q0 76 -53 129.5t-131 53.5q-76 0 -129 -53.5t-53 -129.5v-305z" horiz-adv-x="1546" unicode="æ"/><glyph d="M-51 735q0 152 57 285t156.5 232.5t232.5 156.5t285 57q47 0 94 -6q10 -2 19.5 -11t9.5 -19v-195q0 -10 -8.5 -17.5t-20.5 -3.5q-41 8 -94 9q-100 0 -189.5 -38t-155 -104.5t-104 -155.5t-38.5 -190q0 -100 38.5 -189t104 -154.5t155 -104.5t189.5 -39q25 0 48.5 3 t45.5 7q29 4 29 -22v-193q0 -12 -9.5 -21.5t-19.5 -11.5q-47 -6 -94 -6q-43 0 -86 6v-76q66 -10 107.5 -53t41.5 -121q0 -39 -16 -70.5t-42 -53t-59.5 -33t-68.5 -11.5q-68 0 -113 24t-73 58q-8 10 -5 20.5t13 16.5l63 39q10 6 20.5 3t18.5 -11q18 -23 58 -23q25 0 42 13.5 t17 42.5q0 59 -68 59h-32q-27 0 -27 29v172q-115 33 -210 100.5t-164.5 159.5t-108.5 204.5t-39 235.5z" horiz-adv-x="1007" unicode="ç"/><glyph d="M0 29v1407q0 26 29 26h673q29 0 29 -26v-189q0 -29 -29 -28h-458v-244h338q27 0 26 -27v-188q0 -29 -26 -29h-338v-487h458q29 0 29 -27v-188q0 -29 -29 -29h-673q-29 0 -29 29zM125 1892q-10 18 10 19h205q20 0 27 -21l96 -291q6 -20 -14 -20h-130q-20 0 -30 18z" horiz-adv-x="935" unicode="è"/><glyph d="M2 29v1407q0 26 29 26h676q27 0 26 -26v-189q0 -29 -26 -28h-461v-244h338q29 0 28 -27v-188q0 -29 -28 -29h-338v-487h461q27 0 26 -27v-188q0 -29 -26 -29h-676q-29 0 -29 29zM238 1599l96 291q6 21 26 21h205q20 0 13 -19l-166 -295q-10 -18 -31 -18h-129 q-20 0 -14 20z" horiz-adv-x="937" unicode="é"/><glyph d="M0 29v1407q0 10 9.5 18t19.5 8h676q27 0 26 -26v-189q0 -29 -26 -28h-461v-244h338q29 0 28 -27v-188q0 -29 -28 -29h-338v-487h461q27 0 26 -27v-188q0 -29 -26 -29h-676q-10 0 -19.5 8t-9.5 21zM90 1590q-2 5 4 12l254 301q11 14 19 14t18 -14l254 -301q6 -6 4 -11.5 t-10 -5.5h-131q-23 0 -37 14l-98 80l-99 -80q-14 -14 -37 -14h-131q-8 0 -10 5z" horiz-adv-x="935" unicode="ê"/><glyph d="M0 29v1407q0 10 9.5 18t19.5 8h676q27 0 26 -26v-189q0 -29 -26 -28h-461v-244h338q29 0 28 -27v-188q0 -29 -28 -29h-338v-487h461q27 0 26 -27v-188q0 -29 -26 -29h-676q-10 0 -19.5 8t-9.5 21zM20 1587v203q0 20 21 20h203q20 0 20 -20v-203q0 -20 -20 -20h-203 q-20 0 -21 20zM469 1587v203q0 20 20 20h203q20 0 21 -20v-203q-1 -20 -21 -20h-203q-20 0 -20 20z" horiz-adv-x="935" unicode="ë"/><glyph d="M-121 1892q-10 18 10 19h205q23 0 27 -21l96 -291q6 -20 -14 -20h-129q-20 0 -29 18zM0 29v1407q0 27 29 26h186q29 0 29 -26v-1407q0 -29 -29 -29h-186q-29 0 -29 29z" horiz-adv-x="468" unicode="ì"/><glyph d="M0 29q0 -12 9.5 -20.5t19.5 -8.5h188q27 0 27 29v1407q0 27 -27 26h-188q-10 0 -19.5 -8t-9.5 -18v-1407zM27 1599l96 291q7 21 27 21h206q18 0 11 -19l-166 -295q-10 -18 -31 -18h-129q-20 0 -14 20z" horiz-adv-x="471" unicode="í"/><glyph d="M-152 1602l254 301q15 14 21 14q4 0 18 -14l254 -301q14 -14 -6 -15h-133q-8 0 -18.5 3t-16.5 9l-98 80l-98 -80q-16 -12 -37 -12h-131q-18 0 -9 15zM0 29q0 -10 8.5 -19.5t20.5 -9.5h186q12 0 20.5 9t8.5 20v1407q0 27 -29 26h-186q-29 0 -29 -26v-1407z" horiz-adv-x="462" unicode="î"/><glyph d="M-225 1587v203q0 20 20 20h203q20 0 20 -20v-203q0 -20 -20 -20h-203q-20 0 -20 20zM0 29q0 -10 8.5 -19.5t18.5 -9.5h188q12 0 20.5 9t8.5 20v1407q0 27 -29 26h-188q-27 0 -27 -26v-1407zM223 1587v203q0 20 21 20h202q20 0 21 -20v-203q-1 -20 -21 -20h-202 q-20 0 -21 20z" horiz-adv-x="487" unicode="ï"/><glyph d="M0 975q0 100 39 189t104.5 155.5t154.5 104.5t189 38t189.5 -38t156 -104.5t104.5 -155.5t38 -189q0 -143 -76 -254h4l-467 -696q-6 -10 -19.5 -17.5t-23.5 -7.5h-237q-12 0 -16.5 7t3.5 18l324 483q-96 4 -181 41t-148.5 98.5t-100.5 145.5t-37 182zM244 975 q0 -51 19.5 -95t52 -77t76.5 -52.5t95 -19.5t95.5 19.5t77 52.5t52 77t19.5 95t-19.5 95t-52 77t-76.5 52.5t-96 19.5q-51 0 -95 -19.5t-76.5 -52.5t-52 -77t-19.5 -95z" horiz-adv-x="1159" unicode="ð"/><glyph d="M0 29v1407q0 26 27 26h188q12 0 25.5 -5t21.5 -15l346 -359v353q0 27 29 26h186q29 0 29 -26v-1407q0 -29 -29 -29h-186q-29 0 -29 29v702l-364 379v-1081q0 -29 -29 -29h-188q-27 0 -27 29zM104 1640q16 94 67.5 148.5t123.5 54.5q39 0 73.5 -9t65.5 -19.5t56.5 -19.5 t48.5 -9q41 0 57 45q8 20 27 16l108 -14q20 -4 17 -23q-18 -94 -68.5 -148t-122.5 -54q-41 0 -76 9t-64.5 19.5t-56 19.5t-47.5 9q-41 0 -57 -45q-8 -20 -27 -16l-108 14q-20 4 -17 22z" unicode="ñ"/><glyph d="M-41 975q0 102 39 193.5t104.5 159t154.5 106.5t189 39t189.5 -39t155 -106.5t104.5 -159t39 -193.5t-39 -193.5t-104.5 -159t-154.5 -106.5t-190 -39q-100 0 -189 39t-154.5 106.5t-104.5 159t-39 193.5zM33 29v186q0 29 28 29h770q29 0 29 -29v-186q0 -29 -29 -29h-770 q-29 0 -28 29zM193 1892q-10 18 10 19h205q23 0 26 -21l96 -291q6 -20 -14 -20h-129q-20 0 -29 18zM203 975q0 -51 19.5 -95t52 -77t76.5 -52.5t95 -19.5t95.5 19.5t77 52.5t52 77t19.5 95t-19.5 95t-52 77t-76.5 52.5t-96 19.5q-51 0 -95 -19.5t-76.5 -52.5t-52 -77 t-19.5 -95z" horiz-adv-x="1118" unicode="ò"/><glyph d="M-41 975q0 -102 39 -192.5t104.5 -158t154.5 -106.5t189 -39t189.5 39t155 106.5t104.5 157.5t39 193q0 102 -39 193.5t-104.5 159t-155 106.5t-189.5 39t-189 -39t-154.5 -106.5t-104.5 -159t-39 -193.5zM33 29v188q0 27 28 27h770q29 0 29 -27v-188q0 -10 -8.5 -19.5 t-20.5 -9.5h-770q-12 0 -20 9t-8 20zM203 975q0 51 19.5 95t52 77t76.5 52.5t95 19.5t95.5 -19.5t77 -52.5t52 -77t19.5 -95q0 -49 -19.5 -94t-52 -78t-77 -52.5t-95.5 -19.5t-95 19.5t-76.5 52.5t-52 78t-19.5 94zM362 1599l97 293q3 19 26 19h205q20 0 10 -19l-165 -295 q-8 -18 -29 -18h-129q-23 0 -15 20z" horiz-adv-x="1118" unicode="ó"/><glyph d="M-41 975q0 -102 38 -192.5t104.5 -158t154.5 -106.5t190 -39q100 0 189.5 39t155 106.5t104.5 157.5t39 193q0 102 -39 193.5t-104.5 159t-155 106.5t-189.5 39q-102 0 -190 -39t-154.5 -106.5t-104.5 -159t-38 -193.5zM33 29v188q0 27 26 27h772q29 0 29 -27v-188 q0 -10 -8.5 -19.5t-20.5 -9.5h-772q-10 0 -18 9t-8 20zM172 1602l256 301q10 14 18 14q4 0 19 -14l254 -301q14 -14 -6 -15h-131q-10 0 -20.5 3t-16.5 9l-99 80l-98 -80q-16 -12 -37 -12h-131q-18 0 -8 15zM203 975q0 51 19.5 95t52 77t76.5 52.5t95 19.5t95.5 -19.5 t77 -52.5t52 -77t19.5 -95q0 -49 -19.5 -94t-52 -78t-77 -52.5t-95.5 -19.5t-95 19.5t-76.5 52.5t-52 78t-19.5 94z" horiz-adv-x="1118" unicode="ô"/><glyph d="M-41 975q0 -102 39 -192.5t104.5 -158t154.5 -106.5t189 -39t189.5 39t156 106.5t104.5 157.5t38 193q0 102 -38 193.5t-104.5 159t-156 106.5t-189.5 39t-189 -39t-154.5 -106.5t-104.5 -159t-39 -193.5zM33 29v188q0 27 28 27h773q27 0 26 -27v-188q0 -10 -8 -19.5 t-18 -9.5h-773q-12 0 -20 9t-8 20zM125 1640q18 94 68.5 148.5t123.5 54.5q39 0 74 -9t65.5 -19.5t56.5 -19.5t48 -9q41 0 57 45q4 20 25 16l109 -14q20 -4 16 -23q-16 -92 -66.5 -147t-123.5 -55q-41 0 -75 9t-64.5 19.5t-56.5 19.5t-48 9q-42 0 -58 -45q-6 -16 -26 -16 l-107 14q-23 4 -18 22zM203 975q0 51 19.5 95t52 77t77.5 52.5t94 19.5q51 0 95.5 -19.5t77 -52.5t52 -77t19.5 -95q0 -49 -19.5 -94t-52 -78t-77 -52.5t-95.5 -19.5q-49 0 -94 19.5t-77.5 52.5t-52 78t-19.5 94z" horiz-adv-x="1118" unicode="õ"/><glyph d="M-41 975q0 -102 39 -192.5t104.5 -158t154.5 -106.5t189 -39t189.5 39t156 106.5t104.5 157.5t38 193q0 102 -38 193.5t-104.5 159t-156 106.5t-189.5 39t-189 -39t-154.5 -106.5t-104.5 -159t-39 -193.5zM33 29v188q0 27 28 27h773q27 0 26 -27v-188q0 -10 -8 -19.5 t-18 -9.5h-773q-12 0 -20 9t-8 20zM100 1587v203q0 20 21 20h203q20 0 20 -20v-203q0 -20 -20 -20h-203q-20 0 -21 20zM203 975q0 51 19.5 95t52 77t76.5 52.5t95 19.5t95.5 -19.5t77 -52.5t52 -77t19.5 -95q0 -49 -19.5 -94t-52 -78t-77 -52.5t-95.5 -19.5t-95 19.5 t-76.5 52.5t-52 78t-19.5 94zM549 1587v203q0 20 20 20h203q20 0 21 -20v-203q-1 -20 -21 -20h-203q-20 0 -20 20z" horiz-adv-x="1118" unicode="ö"/><glyph d="M-41 975q0 102 39 193.5t104.5 159t154.5 106.5t189 39t189.5 -39t155 -106.5t104.5 -159t39 -193.5t-39 -193.5t-104.5 -159t-154.5 -106.5t-190 -39q-100 0 -189 39t-154.5 106.5t-104.5 158.5t-39 194zM33 29v186q0 29 28 29h770q29 0 29 -29v-186q0 -29 -29 -29h-770 q-29 0 -28 29zM141 -172l608 1774q8 26 37 26h168q12 0 17 -8t1 -18l-606 -1774q-10 -25 -37 -25h-170q-25 0 -18 25zM203 975q0 -51 19.5 -95t52 -77t76.5 -52.5t95 -19.5t95.5 19.5t77 52.5t52 77t19.5 95t-19.5 95t-52 77t-76.5 52.5t-96 19.5q-51 0 -95 -19.5 t-76.5 -52.5t-52 -77t-19.5 -95z" horiz-adv-x="1118" unicode="ø"/><glyph d="M0 426v1008q0 29 29 28h186q29 0 29 -28v-1008q0 -76 53 -129t129 -53t129 53t53 129v1008q0 12 9.5 20t19.5 8h188q27 0 27 -28v-1008q0 -88 -34 -166t-91 -135t-135 -91t-166 -34t-166 34t-135 91t-91 135t-34 166zM213 1892q-8 18 10 19h207q20 0 27 -21l96 -291 q4 -20 -14 -20h-129q-20 0 -31 18z" unicode="ù"/><glyph d="M0 428q0 -88 34 -166t91 -136t135 -92t166 -34t166 34t135 92t91 136t34 166v1008q0 27 -27 26h-188q-29 0 -29 -26v-1008q0 -78 -53 -131t-129 -53t-129 53t-53 131v1008q0 26 -29 26h-186q-29 0 -29 -26v-1008zM301 1599l94 293q9 19 29 19h205q20 0 10 -19l-166 -295 q-8 -18 -31 -18h-129q-20 0 -12 20z" unicode="ú"/><glyph d="M0 428q0 -88 34 -166t92 -136t136 -92t166 -34t166 34t135 92t91 136t34 166v1008q0 27 -29 26h-186q-29 0 -29 -26v-1008q0 -78 -53 -131t-129 -53q-78 0 -131 53t-53 131v1008q0 26 -27 26h-188q-10 0 -19.5 -8t-9.5 -18v-1008zM154 1602l256 301q10 14 18 14 q4 0 18 -14l254 -301q14 -14 -6 -15h-131q-10 0 -20.5 3t-16.5 9l-98 80l-98 -80q-16 -12 -37 -12h-131q-18 0 -8 15z" horiz-adv-x="1079" unicode="û"/><glyph d="M0 428q0 -88 34 -166t91 -136t135 -92t166 -34t166 34t135 92t91 136t34 166v1008q0 27 -27 26h-188q-10 0 -19.5 -8t-9.5 -18v-1008q0 -78 -53 -131t-129 -53t-129 53t-53 131v1008q0 26 -29 26h-186q-29 0 -29 -26v-1008zM82 1587v203q0 20 20 20h203q20 0 21 -20v-203 q-1 -20 -21 -20h-203q-20 0 -20 20zM528 1587v203q0 20 21 20h203q20 0 20 -20v-203q0 -20 -20 -20h-203q-20 0 -21 20z" unicode="ü"/><glyph d="M-68 1436q-10 25 17 24h209q29 0 39 -24l235 -600l236 600q4 10 15 17t22 7h208q27 0 17 -24l-377 -901v-508q0 -27 -27 -27h-188q-29 0 -29 27v508z" horiz-adv-x="1087" unicode="ý"/><glyph d="M-262 29q0 -10 8 -19.5t18 -9.5h461q100 0 189.5 39t155 104.5t104.5 154.5t39 189q0 74 -20.5 141.5t-58.5 125t-90 103.5t-116 75q41 76 41 166q0 76 -28.5 142.5t-79 115.5t-117 77.5t-142.5 28.5h-338q-27 0 -26 -26v-1407zM-18 244v243v244h243q49 0 94.5 -19.5 t78 -52t52 -76.5t19.5 -96q0 -49 -19.5 -94t-52 -77.5t-78 -52t-94.5 -19.5h-243zM-18 975v244h120q51 0 87 -35t36 -86t-35.5 -87t-87.5 -36h-120zM0 -182v1771q0 27 27 27h172q27 0 26 -27v-1771q0 -27 -26 -27h-172q-27 0 -27 27z" horiz-adv-x="450" unicode="þ"/><glyph d="M-68 1438l377 -901v-508q0 -12 9.5 -20.5t19.5 -8.5h188q27 0 27 29v508l379 901q10 25 -19 24h-206q-29 1 -39 -26l-236 -600l-235 600q-10 27 -39 26h-207q-29 0 -19 -24zM86 1587v203q0 20 20 20h203q20 0 21 -20v-203q-1 -20 -21 -20h-203q-20 0 -20 20zM535 1587 v203q0 20 20 20h203q20 0 20 -20v-203q0 -20 -20 -20h-203q-20 0 -20 20z" horiz-adv-x="1087" unicode="ÿ"/><glyph d="M-51 731q0 152 57 285t156.5 232.5t232.5 156.5t285 57q141 0 265 -49t222 -137v160q0 27 27 26h676q10 0 19 -8t9 -18v-189q0 -12 -9 -20t-19 -8h-459v-244h336q29 0 29 -27v-188q0 -10 -8.5 -19.5t-20.5 -9.5h-336v-487h459q10 0 19 -8.5t9 -18.5v-188q0 -10 -9 -19.5 t-19 -9.5h-676q-10 0 -18.5 9t-8.5 20v157q-98 -86 -222 -136t-265 -50q-152 0 -285 57.5t-232.5 156.5t-156.5 232.5t-57 284.5zM193 731q0 -100 37.5 -189t104 -154.5t155 -104.5t190.5 -39q100 0 189 39t155 104.5t104.5 154.5t38.5 189t-38.5 189.5t-104.5 156 t-155 104.5t-189 38q-102 0 -190.5 -38t-155 -104.5t-104 -156t-37.5 -189.5z" horiz-adv-x="2103" unicode="Œ"/><glyph d="M-51 731q0 152 57 285t156.5 232.5t232.5 156.5t285 57q141 0 265 -49t222 -137v160q0 27 27 26h676q10 0 19 -8t9 -18v-189q0 -12 -9 -20t-19 -8h-459v-244h336q29 0 29 -27v-188q0 -10 -8.5 -19.5t-20.5 -9.5h-336v-487h459q10 0 19 -8.5t9 -18.5v-188q0 -10 -9 -19.5 t-19 -9.5h-676q-10 0 -18.5 9t-8.5 20v157q-98 -86 -222 -136t-265 -50q-152 0 -285 57.5t-232.5 156.5t-156.5 232.5t-57 284.5zM193 731q0 -100 37.5 -189t104 -154.5t155 -104.5t190.5 -39q100 0 189 39t155 104.5t104.5 154.5t38.5 189t-38.5 189.5t-104.5 156 t-155 104.5t-189 38q-102 0 -190.5 -38t-155 -104.5t-104 -156t-37.5 -189.5z" horiz-adv-x="2103" unicode="œ"/><glyph d="M-68 1438l377 -901v-508q0 -12 9.5 -20.5t19.5 -8.5h188q27 0 27 29v508l379 901q10 25 -19 24h-206q-29 1 -39 -26l-236 -600l-235 600q-10 27 -39 26h-207q-29 0 -19 -24zM86 1587v203q0 20 20 20h203q20 0 21 -20v-203q-1 -20 -21 -20h-203q-20 0 -20 20zM535 1587 v203q0 20 20 20h203q20 0 20 -20v-203q0 -20 -20 -20h-203q-20 0 -20 20z" horiz-adv-x="1087" unicode="Ÿ"/><glyph horiz-adv-x="0" unicode="ˆ"/><glyph horiz-adv-x="0" unicode="˜"/><glyph horiz-adv-x="958"/><glyph horiz-adv-x="1917"/><glyph horiz-adv-x="958"/><glyph horiz-adv-x="1917"/><glyph horiz-adv-x="639"/><glyph horiz-adv-x="479"/><glyph horiz-adv-x="319"/><glyph horiz-adv-x="319"/><glyph horiz-adv-x="239"/><glyph horiz-adv-x="383"/><glyph horiz-adv-x="106"/><glyph d="M0 446v142q0 28 29 28h344q29 0 28 -28v-142q0 -29 -28 -28h-344q-29 0 -29 28z" horiz-adv-x="626" unicode="‐"/><glyph d="M0 446v142q0 28 29 28h344q29 0 28 -28v-142q0 -29 -28 -28h-344q-29 0 -29 28z" horiz-adv-x="626" unicode="‑"/><glyph d="M0 446v142q0 28 29 28h344q29 0 28 -28v-142q0 -29 -28 -28h-344q-29 0 -29 28z" horiz-adv-x="626" unicode="‒"/><glyph d="M0 446v142q0 28 74 28h878q74 0 72 -28v-142q0 -29 -72 -28h-878q-74 0 -74 28z" horiz-adv-x="1248" unicode="–"/><glyph d="M0 446v142q0 28 148 28h1757q148 0 143 -28v-142q0 -29 -143 -28h-1757q-148 0 -148 28z" horiz-adv-x="2272" unicode="—"/><glyph d="M0 1124q0 43 13.5 79t35.5 75l101 160q6 10 19 17t24 7h55q12 0 17 -8t1 -18l-63 -174q35 -16 62.5 -51.5t27.5 -84.5q0 -63 -44 -104t-104 -41q-57 0 -101 41t-44 102z" horiz-adv-x="518" unicode="‘"/><glyph d="M0 1309q0 66 46 108.5t108 42.5q59 0 105 -43t46 -108q0 -41 -16.5 -76t-38.5 -74l-107 -176q-14 -23 -43 -22h-63q-25 0 -19 24l68 186q-39 18 -62.5 54.5t-23.5 83.5z" horiz-adv-x="530" unicode="’"/><glyph d="M0 137q0 68 46 111t106 43q61 0 107 -43t46 -111q0 -41 -17.5 -74.5t-39.5 -72.5l-105 -176q-14 -25 -43 -25h-63q-12 0 -17.5 8t-1.5 19l66 184q-37 18 -60.5 54t-23.5 83z" horiz-adv-x="530" unicode="‚"/><glyph d="M0 1124q0 43 13.5 79t35.5 75l101 160q6 10 19 17t24 7h55q12 0 17 -8t1 -18l-63 -174q35 -16 62.5 -51.5t27.5 -84.5q0 -63 -44 -104t-104 -41q-57 0 -101 41t-44 102zM385 1124q0 43 14.5 79t36.5 75l101 160q14 25 43 24h55q27 0 18 -26l-65 -174q35 -16 63.5 -51.5 t28.5 -84.5q0 -63 -45 -104t-105 -41q-57 0 -101 41t-44 102z" horiz-adv-x="905" unicode="“"/><glyph d="M0 1317q0 63 44 104t103 41t103.5 -41t44.5 -102q0 -43 -14.5 -79t-36.5 -75l-101 -161q-14 -23 -43 -23h-55q-27 0 -18 27l65 174q-35 16 -63.5 51t-28.5 84zM385 1317q0 63 45 104t105 41q57 0 101 -41t44 -102q0 -43 -14.5 -79t-36.5 -75l-101 -161q-14 -23 -43 -23 h-55q-10 0 -15 8t-1 19l63 174q-35 16 -63.5 51t-28.5 84z" horiz-adv-x="905" unicode="”"/><glyph horiz-adv-x="0" unicode="„"/><glyph d="M147 731q0 76 29 142.5t78 115.5t115.5 78t142.5 29t142.5 -29t116.5 -78t79 -115.5t29 -142.5t-29 -142.5t-79 -116.5t-116.5 -78.5t-142.5 -28.5t-142.5 28.5t-115.5 78.5t-78 116.5t-29 142.5z" horiz-adv-x="1026" unicode="•"/><glyph d="M0 139q0 66 46 109t108 43q59 0 105 -43t46 -109q0 -68 -46 -110.5t-105 -42.5q-61 0 -107.5 42.5t-46.5 110.5zM530 139q0 66 46.5 109t107.5 43q59 0 105.5 -43t46.5 -109q0 -68 -46.5 -110.5t-105.5 -42.5q-61 0 -107.5 42.5t-46.5 110.5zM1061 139q0 66 46 109 t107 43q59 0 105.5 -43t46.5 -109q0 -68 -46 -110.5t-106 -42.5q-61 0 -107 42.5t-46 110.5z" horiz-adv-x="1591" unicode="…"/><glyph horiz-adv-x="383"/><glyph horiz-adv-x="0" unicode="‹"/><glyph horiz-adv-x="0" unicode="›"/><glyph horiz-adv-x="479"/><glyph d="M0 0v1464h1464v-1464h-1464z" horiz-adv-x="1464" unicode="◼"/></font>
</defs>
</svg>
