<svg xmlns="http://www.w3.org/2000/svg" width="500" height="500" version="1.1"><path fill="#FEBF00" d="M0 0 C2.24450969 3.66244208 2.60297255 7.42868357 3.05322266 11.61083984 C3.14129684 12.37231827 3.22937103 13.13379669 3.32011414 13.91835022 C3.60885782 16.43176255 3.88663514 18.94625295 4.1640625 21.4609375 C4.36241726 23.21211085 4.56134939 24.96321889 4.76083374 26.71426392 C5.17728286 30.38386839 5.58865181 34.0539941 5.99609375 37.72460938 C6.51761739 42.42177663 7.04871616 47.11779625 7.58326149 51.81349754 C7.99439824 55.43005442 8.40193337 59.04700954 8.80823898 62.66411209 C9.00284744 64.39529546 9.1982161 66.12639355 9.39436722 67.8574028 C9.66818819 70.28135834 9.93752469 72.70577055 10.20556641 75.13037109 C10.28658096 75.8412236 10.36759552 76.55207611 10.45106506 77.2844696 C10.87958455 81.20969622 11.07815265 85.05216236 11 89 C11.79019531 89.02578125 12.58039063 89.0515625 13.39453125 89.078125 C26.23122251 89.72362719 38.69321507 92.34565508 51 96 C51.38631592 95.27224365 51.77263184 94.5444873 52.1706543 93.79467773 C59.31811976 80.34714305 66.51706175 66.94288545 74.05419922 53.70849609 C78.52647293 45.85545392 82.92904951 37.96533543 87.3125 30.0625 C87.81813477 29.15115799 87.81813477 29.15115799 88.33398438 28.22140503 C90.22382758 24.81491856 92.11247851 21.40777342 94 18 C95.69280466 22.10591215 94.21330788 25.71270675 93.00219727 29.75024414 C92.77801117 30.52629501 92.55382507 31.30234589 92.32284546 32.10191345 C91.57984773 34.66575499 90.82304652 37.22531113 90.06640625 39.78515625 C89.54833121 41.56558729 89.03124964 43.34630769 88.51512146 45.12730408 C87.15413053 49.8156235 85.78195331 54.50058922 84.40673828 59.18475342 C82.20628687 66.68541013 80.02117962 74.1905363 77.83912468 81.69656181 C77.07425518 84.3207276 76.30367002 86.94316486 75.53236389 89.56544495 C75.06381752 91.16996745 74.59542051 92.77453357 74.12719727 94.37915039 C73.80224022 95.475634 73.80224022 95.475634 73.47071838 96.5942688 C72.62637194 99.50218311 72 101.9540975 72 105 C72.88300781 105.4846875 73.76601563 105.969375 74.67578125 106.46875 C84.81497489 112.10463157 94.20796108 118.39607444 103 126 C108.03568881 124.44386584 111.47567876 121.39272655 115.4375 118.0625 C116.87288559 116.87531924 118.30909786 115.68913736 119.74609375 114.50390625 C120.46265137 113.91109863 121.17920898 113.31829102 121.91748047 112.70751953 C124.90729555 110.25608147 127.9489222 107.87443103 131 105.5 C136.07311314 101.54166537 141.0799004 97.50909748 146.0625 93.4375 C152.0032223 88.5840717 158.0207854 83.85436536 164.1328125 79.21875 C166.23015673 77.59573702 168.23621012 75.94682731 170.2421875 74.21875 C173 72 173 72 175 72 C173.24720854 76.16936192 170.39689353 79.40688432 167.5625 82.875 C166.46817237 84.22739738 165.37443484 85.58027245 164.28125 86.93359375 C163.72953125 87.61534668 163.1778125 88.29709961 162.609375 88.99951172 C160.23095027 91.95594561 157.89660145 94.94604464 155.5625 97.9375 C151.58123349 103.0294979 147.52661539 108.05679697 143.4375 113.0625 C135.71377755 122.52474312 128.29789984 132.20545022 121 142 C122.5705486 145.51112173 124.69401913 148.2923736 127.0625 151.3125 C132.70082925 158.72365886 137.82984505 166.65969009 142 175 C150.33192615 173.60205627 158.36619342 171.25624878 166.45434189 168.86886024 C168.84921044 168.16265215 171.24585548 167.46280233 173.64309692 166.76469421 C180.45098632 164.78134416 187.25639625 162.78965169 194.05859375 160.78686523 C198.23682162 159.55713961 202.41776811 158.33707112 206.60058975 157.12306786 C208.18929816 156.6598691 209.77692835 156.19295533 211.36343002 155.7222538 C213.57422204 155.06657315 215.78825159 154.42319021 218.00341797 153.7824707 C219.26121063 153.41321976 220.5190033 153.04396881 221.81491089 152.66352844 C224.7759925 152.04666599 226.23154592 151.91685525 229 153 C228.26289795 153.40613525 227.5257959 153.81227051 226.76635742 154.23071289 C189.25140835 174.88031148 189.25140835 174.88031148 152 196 C152 200.10347484 152.82099838 203.52310156 153.875 207.4375 C156.33617505 216.93385928 158.05509432 226.15768915 158 236 C158.88980057 236.05156754 159.77960114 236.10313507 160.69636536 236.15626526 C170.38110615 236.75489922 179.99678128 237.68137976 189.63671875 238.77734375 C191.17510594 238.95056527 192.71350233 239.1237051 194.25190735 239.29676819 C197.44125824 239.65652414 200.63026762 240.01915139 203.8190918 240.38354492 C207.9012411 240.84950433 211.9844761 241.30512113 216.06805706 241.75833797 C219.22991613 242.11090483 222.39096605 242.47034413 225.55182838 242.83172798 C227.05821795 243.00283542 228.56489088 243.1714677 230.0718441 243.33753777 C232.16817697 243.56929442 234.2631911 243.81065692 236.3581543 244.05444336 C237.54757126 244.18910507 238.73698822 244.32376678 239.96244812 244.46250916 C242.71781504 244.95006774 244.61355831 245.58323477 247 247 C237.23875798 248.58846978 227.45290147 249.82702118 217.62890625 250.9453125 C216.09242883 251.12169408 214.55596568 251.29820002 213.01951599 251.474823 C209.8270851 251.84119066 206.63444621 252.20567449 203.44165039 252.56884766 C199.36056629 253.03327476 195.28012563 253.50311474 191.19983006 253.97441292 C188.03876163 254.33882604 184.87733826 254.70008119 181.71580315 255.06042099 C180.21066305 255.23241082 178.70564162 255.40544254 177.20074654 255.57956314 C175.10106564 255.82208711 173.00093425 256.06026435 170.90063477 256.29736328 C169.70962662 256.43345001 168.51861847 256.56953674 167.29151917 256.70974731 C164.17320283 256.98472663 161.12831183 257.05348177 158 257 C157.97421875 257.79019531 157.9484375 258.58039063 157.921875 259.39453125 C157.27637281 272.23122251 154.65434492 284.69321507 151 297 C152.00075562 297.53403442 152.00075562 297.53403442 153.02172852 298.07885742 C165.90288744 304.96135651 178.72657228 311.91393599 191.41186523 319.15283203 C199.59624461 323.80989125 207.87389289 328.28507905 216.19775391 332.68774414 C220.79711619 335.14535001 225.08704067 337.49848918 229 341 C223.53384771 340.4289889 218.43528659 339.44063193 213.1628418 337.86694336 C212.4252211 337.65221878 211.6876004 337.4374942 210.92762756 337.21626282 C208.51649551 336.51300682 206.10793055 335.80134018 203.69921875 335.08984375 C202.01409037 334.59737825 200.32876909 334.10557239 198.64326477 333.61439514 C194.22561389 332.3256971 189.80993033 331.03039922 185.39483643 329.73297119 C178.31146935 327.65173208 171.22627169 325.57681756 164.13895607 323.50906563 C161.66561065 322.78579252 159.19381726 322.05738449 156.72209167 321.32859802 C155.21151736 320.88674392 153.70088512 320.44508776 152.19018555 320.00366211 C151.50288361 319.79951691 150.81558167 319.5953717 150.10745239 319.38504028 C147.29116661 318.56664606 144.95159703 318 142 318 C141.53851563 318.84820312 141.07703125 319.69640625 140.6015625 320.5703125 C136.94611035 327.18245026 133.08990012 333.54238137 128.6875 339.6875 C128.26742676 340.2748291 127.84735352 340.8621582 127.41455078 341.46728516 C125.44266119 344.17595952 123.47523927 346.73303329 121 349 C122.55613416 354.03568881 125.60727345 357.47567876 128.9375 361.4375 C130.12468076 362.87288559 131.31086264 364.30909786 132.49609375 365.74609375 C133.08890137 366.46265137 133.68170898 367.17920898 134.29248047 367.91748047 C136.74391853 370.90729555 139.12556897 373.9489222 141.5 377 C145.45833463 382.07311314 149.49090252 387.0799004 153.5625 392.0625 C158.4159283 398.0032223 163.14563464 404.0207854 167.78125 410.1328125 C169.40426298 412.23015673 171.05317269 414.23621012 172.78125 416.2421875 C175 419 175 419 175 421 C170.83063808 419.24720854 167.59311568 416.39689353 164.125 413.5625 C162.77260262 412.46817237 161.41972755 411.37443484 160.06640625 410.28125 C159.38465332 409.72953125 158.70290039 409.1778125 158.00048828 408.609375 C155.04405439 406.23095027 152.05395536 403.89660145 149.0625 401.5625 C143.9705021 397.58123349 138.94320303 393.52661539 133.9375 389.4375 C124.47525688 381.71377755 114.79454978 374.29789984 105 367 C101.48887827 368.5705486 98.7076264 370.69401913 95.6875 373.0625 C88.27634114 378.70082925 80.34030991 383.82984505 72 388 C73.39794373 396.33192615 75.74375122 404.36619342 78.13113976 412.45434189 C78.83734785 414.84921044 79.53719767 417.24585548 80.23530579 419.64309692 C82.21865584 426.45098632 84.21034831 433.25639625 86.21313477 440.05859375 C87.44286039 444.23682162 88.66292888 448.41776811 89.87693214 452.60058975 C90.3401309 454.18929816 90.80704467 455.77692835 91.2777462 457.36343002 C91.93342685 459.57422204 92.57680979 461.78825159 93.2175293 464.00341797 C93.58678024 465.26121063 93.95603119 466.5190033 94.33647156 467.81491089 C94.95333401 470.7759925 95.08314475 472.23154592 94 475 C93.59386475 474.26289795 93.18772949 473.5257959 92.76928711 472.76635742 C72.11968852 435.25140835 72.11968852 435.25140835 51 398 C46.89652516 398 43.47689844 398.82099838 39.5625 399.875 C30.06614072 402.33617505 20.84231085 404.05509432 11 404 C10.94843246 404.88980057 10.89686493 405.77960114 10.84373474 406.69636536 C10.24510078 416.38110615 9.31862024 425.99678128 8.22265625 435.63671875 C8.04943473 437.17510594 7.8762949 438.71350233 7.70323181 440.25190735 C7.34347586 443.44125824 6.98084861 446.63026762 6.61645508 449.8190918 C6.15049567 453.9012411 5.69487887 457.9844761 5.24166203 462.06805706 C4.88909517 465.22991613 4.52965587 468.39096605 4.16827202 471.55182838 C3.99716458 473.05821795 3.8285323 474.56489088 3.66246223 476.0718441 C3.43070558 478.16817697 3.18934308 480.2631911 2.94555664 482.3581543 C2.81089493 483.54757126 2.67623322 484.73698822 2.53749084 485.96244812 C2.04993226 488.71781504 1.41676523 490.61355831 0 493 C-1.58846978 483.23875798 -2.82702118 473.45290147 -3.9453125 463.62890625 C-4.12169408 462.09242883 -4.29820002 460.55596568 -4.474823 459.01951599 C-4.84119066 455.8270851 -5.20567449 452.63444621 -5.56884766 449.44165039 C-6.03327476 445.36056629 -6.50311474 441.28012563 -6.97441292 437.19983006 C-7.33882604 434.03876163 -7.70008119 430.87733826 -8.06042099 427.71580315 C-8.23241082 426.21066305 -8.40544254 424.70564162 -8.57956314 423.20074654 C-8.82208711 421.10106564 -9.06026435 419.00093425 -9.29736328 416.90063477 C-9.43345001 415.70962662 -9.56953674 414.51861847 -9.70974731 413.29151917 C-9.98472663 410.17320283 -10.05348177 407.12831183 -10 404 C-10.79019531 403.97421875 -11.58039063 403.9484375 -12.39453125 403.921875 C-25.23122251 403.27637281 -37.69321507 400.65434492 -50 397 C-50.38631592 397.72775635 -50.77263184 398.4555127 -51.1706543 399.20532227 C-58.31811976 412.65285695 -65.51706175 426.05711455 -73.05419922 439.29150391 C-77.52647293 447.14454608 -81.92904951 455.03466457 -86.3125 462.9375 C-86.64958984 463.54506134 -86.98667969 464.15262268 -87.33398438 464.77859497 C-89.22382758 468.18508144 -91.11247851 471.59222658 -93 475 C-94.69280466 470.89408785 -93.21330788 467.28729325 -92.00219727 463.24975586 C-91.77801117 462.47370499 -91.55382507 461.69765411 -91.32284546 460.89808655 C-90.57984773 458.33424501 -89.82304652 455.77468887 -89.06640625 453.21484375 C-88.54833121 451.43441271 -88.03124964 449.65369231 -87.51512146 447.87269592 C-86.15413053 443.1843765 -84.78195331 438.49941078 -83.40673828 433.81524658 C-81.20628687 426.31458987 -79.02117962 418.8094637 -76.83912468 411.30343819 C-76.07425518 408.6792724 -75.30367002 406.05683514 -74.53236389 403.43455505 C-74.06381752 401.83003255 -73.59542051 400.22546643 -73.12719727 398.62084961 C-72.91055923 397.88986053 -72.6939212 397.15887146 -72.47071838 396.4057312 C-71.62637194 393.49781689 -71 391.0459025 -71 388 C-71.88300781 387.5153125 -72.76601562 387.030625 -73.67578125 386.53125 C-83.81497489 380.89536843 -93.20796108 374.60392556 -102 367 C-107.03568881 368.55613416 -110.47567876 371.60727345 -114.4375 374.9375 C-115.87288559 376.12468076 -117.30909786 377.31086264 -118.74609375 378.49609375 C-119.46265137 379.08890137 -120.17920898 379.68170898 -120.91748047 380.29248047 C-123.90729555 382.74391853 -126.9489222 385.12556897 -130 387.5 C-135.07311314 391.45833463 -140.0799004 395.49090252 -145.0625 399.5625 C-151.0032223 404.4159283 -157.0207854 409.14563464 -163.1328125 413.78125 C-165.23015673 415.40426298 -167.23621012 417.05317269 -169.2421875 418.78125 C-172 421 -172 421 -174 421 C-172.24720854 416.83063808 -169.39689353 413.59311568 -166.5625 410.125 C-165.46817237 408.77260262 -164.37443484 407.41972755 -163.28125 406.06640625 C-162.72953125 405.38465332 -162.1778125 404.70290039 -161.609375 404.00048828 C-159.23095027 401.04405439 -156.89660145 398.05395536 -154.5625 395.0625 C-150.58123349 389.9705021 -146.52661539 384.94320303 -142.4375 379.9375 C-134.71377755 370.47525688 -127.29789984 360.79454978 -120 351 C-121.5705486 347.48887827 -123.69401913 344.7076264 -126.0625 341.6875 C-131.70082925 334.27634114 -136.82984505 326.34030991 -141 318 C-149.56053619 319.48512231 -157.83832033 321.85492494 -166.16796875 324.28125 C-167.61653926 324.69994499 -169.06521582 325.11827321 -170.51399231 325.53625488 C-174.30161708 326.63004656 -178.0878171 327.72868978 -181.87371826 328.82843018 C-185.71900792 329.94451665 -189.56560424 331.05608004 -193.41210938 332.16796875 C-200.18243779 334.12552223 -206.95159941 336.08706349 -213.71989441 338.05163574 C-214.80232925 338.36459595 -215.8847641 338.67755615 -217 339 C-218.24280228 339.3777356 -219.48560455 339.75547119 -220.7660675 340.14465332 C-223.8207177 340.95258141 -225.12888376 341.1484465 -228 340 C-227.26289795 339.59386475 -226.5257959 339.18772949 -225.76635742 338.76928711 C-188.25140835 318.11968852 -188.25140835 318.11968852 -151 297 C-151 292.89652516 -151.82099838 289.47689844 -152.875 285.5625 C-155.33617505 276.06614072 -157.05509432 266.84231085 -157 257 C-157.88980057 256.94843246 -158.77960114 256.89686493 -159.69636536 256.84373474 C-169.38110615 256.24510078 -178.99678128 255.31862024 -188.63671875 254.22265625 C-190.17510594 254.04943473 -191.71350233 253.8762949 -193.25190735 253.70323181 C-196.44125824 253.34347586 -199.63026762 252.98084861 -202.8190918 252.61645508 C-206.9012411 252.15049567 -210.9844761 251.69487887 -215.06805706 251.24166203 C-218.22991613 250.88909517 -221.39096605 250.52965587 -224.55182838 250.16827202 C-226.05821795 249.99716458 -227.56489088 249.8285323 -229.0718441 249.66246223 C-231.16817697 249.43070558 -233.2631911 249.18934308 -235.3581543 248.94555664 C-236.54757126 248.81089493 -237.73698822 248.67623322 -238.96244812 248.53749084 C-241.71781504 248.04993226 -243.61355831 247.41676523 -246 246 C-236.23875798 244.41153022 -226.45290147 243.17297882 -216.62890625 242.0546875 C-215.09242883 241.87830592 -213.55596568 241.70179998 -212.01951599 241.525177 C-208.8270851 241.15880934 -205.63444621 240.79432551 -202.44165039 240.43115234 C-198.36056629 239.96672524 -194.28012563 239.49688526 -190.19983006 239.02558708 C-187.03876163 238.66117396 -183.87733826 238.29991881 -180.71580315 237.93957901 C-179.21066305 237.76758918 -177.70564162 237.59455746 -176.20074654 237.42043686 C-174.10106564 237.17791289 -172.00093425 236.93973565 -169.90063477 236.70263672 C-168.70962662 236.56654999 -167.51861847 236.43046326 -166.29151917 236.29025269 C-163.17320283 236.01527337 -160.12831183 235.94651823 -157 236 C-156.97421875 235.20980469 -156.9484375 234.41960937 -156.921875 233.60546875 C-156.27637281 220.76877749 -153.65434492 208.30678493 -150 196 C-150.72775635 195.61368408 -151.4555127 195.22736816 -152.20532227 194.8293457 C-165.65285695 187.68188024 -179.05711455 180.48293825 -192.29150391 172.94580078 C-200.14454608 168.47352707 -208.03466457 164.07095049 -215.9375 159.6875 C-216.84884201 159.18186523 -216.84884201 159.18186523 -217.77859497 158.66601562 C-221.18508144 156.77617242 -224.59222658 154.88752149 -228 153 C-223.89408785 151.30719534 -220.28729325 152.78669212 -216.24975586 153.99780273 C-215.47370499 154.22198883 -214.69765411 154.44617493 -213.89808655 154.67715454 C-211.33424501 155.42015227 -208.77468887 156.17695348 -206.21484375 156.93359375 C-204.43441271 157.45166879 -202.65369231 157.96875036 -200.87269592 158.48487854 C-196.1843765 159.84586947 -191.49941078 161.21804669 -186.81524658 162.59326172 C-179.31458987 164.79371313 -171.8094637 166.97882038 -164.30343819 169.16087532 C-161.6792724 169.92574482 -159.05683514 170.69632998 -156.43455505 171.46763611 C-154.83003255 171.93618248 -153.22546643 172.40457949 -151.62084961 172.87280273 C-150.524366 173.19775978 -150.524366 173.19775978 -149.4057312 173.52928162 C-146.49781689 174.37362806 -144.0459025 175 -141 175 C-140.53851563 174.15179688 -140.07703125 173.30359375 -139.6015625 172.4296875 C-135.94611035 165.81754974 -132.08990012 159.45761863 -127.6875 153.3125 C-127.26742676 152.7251709 -126.84735352 152.1378418 -126.41455078 151.53271484 C-124.44266119 148.82404048 -122.47523927 146.26696671 -120 144 C-121.55613416 138.96431119 -124.60727345 135.52432124 -127.9375 131.5625 C-129.12468076 130.12711441 -130.31086264 128.69090214 -131.49609375 127.25390625 C-132.38530518 126.17906982 -132.38530518 126.17906982 -133.29248047 125.08251953 C-135.74391853 122.09270445 -138.12556897 119.0510778 -140.5 116 C-144.45833463 110.92688686 -148.49090252 105.9200996 -152.5625 100.9375 C-157.4159283 94.9967777 -162.14563464 88.9792146 -166.78125 82.8671875 C-168.40426298 80.76984327 -170.05317269 78.76378988 -171.78125 76.7578125 C-174 74 -174 74 -174 72 C-169.83063808 73.75279146 -166.59311568 76.60310647 -163.125 79.4375 C-161.77260262 80.53182763 -160.41972755 81.62556516 -159.06640625 82.71875 C-158.38465332 83.27046875 -157.70290039 83.8221875 -157.00048828 84.390625 C-154.04405439 86.76904973 -151.05395536 89.10339855 -148.0625 91.4375 C-142.9705021 95.41876651 -137.94320303 99.47338461 -132.9375 103.5625 C-123.47525688 111.28622245 -113.79454978 118.70210016 -104 126 C-100.48887827 124.4294514 -97.7076264 122.30598087 -94.6875 119.9375 C-87.27634114 114.29917075 -79.34030991 109.17015495 -71 105 C-72.39794373 96.66807385 -74.74375122 88.63380658 -77.13113976 80.54565811 C-77.83734785 78.15078956 -78.53719767 75.75414452 -79.23530579 73.35690308 C-81.21865584 66.54901368 -83.21034831 59.74360375 -85.21313477 52.94140625 C-86.44286039 48.76317838 -87.66292888 44.58223189 -88.87693214 40.39941025 C-89.3401309 38.81070184 -89.80704467 37.22307165 -90.2777462 35.63656998 C-90.93342685 33.42577796 -91.57680979 31.21174841 -92.2175293 28.99658203 C-92.58678024 27.73878937 -92.95603119 26.4809967 -93.33647156 25.18508911 C-93.95333401 22.2240075 -94.08314475 20.76845408 -93 18 C-92.59386475 18.73710205 -92.18772949 19.4742041 -91.76928711 20.23364258 C-71.11968852 57.74859165 -71.11968852 57.74859165 -50 95 C-45.89652516 95 -42.47689844 94.17900162 -38.5625 93.125 C-29.06614072 90.66382495 -19.84231085 88.94490568 -10 89 C-9.94884033 88.11019943 -9.89768066 87.22039886 -9.8449707 86.30363464 C-9.24861296 76.61568841 -8.30355985 67.00377088 -7.1875 57.36328125 C-7.01173227 55.82491138 -6.83619993 54.2865146 -6.66088867 52.74809265 C-6.29667115 49.55876977 -5.93003865 46.36973728 -5.56152344 43.1809082 C-5.08987709 39.09840563 -4.62386009 35.01528343 -4.15953064 30.93194294 C-3.79951191 27.77045217 -3.43686902 24.6092668 -3.07339478 21.44817162 C-2.90042257 19.94158578 -2.7281933 18.43491445 -2.55673218 16.9281559 C-2.31778969 14.83240677 -2.07538588 12.73708647 -1.83203125 10.6418457 C-1.69514893 9.45242874 -1.5582666 8.26301178 -1.41723633 7.03755188 C-1.08438858 4.61436331 -0.66394415 2.3488381 0 0 Z" transform="translate(250,4)"/><path fill="#020100" d="M0 0 C2.98491126 3.47794471 4.46871568 7.34699582 6.046875 11.5859375 C6.33492004 12.3429747 6.62296509 13.1000119 6.91973877 13.87998962 C7.54264419 15.51870063 8.16272004 17.15848942 8.78027344 18.79922485 C10.4392622 23.20580935 12.11937922 27.60434137 13.796875 32.00390625 C14.3150177 33.36526955 14.3150177 33.36526955 14.84362793 34.75413513 C18.48421555 44.30455724 22.23311164 53.81132385 26 63.3125 C27.18765983 66.30853045 28.37525587 69.30458604 29.5625 72.30078125 C29.84240784 73.00692566 30.12231567 73.71307007 30.41070557 74.44061279 C33.64543125 82.61214655 36.82383443 90.80556523 40 99 C46.97609658 82.2762956 53.54926021 65.42299358 59.96337891 48.47717285 C66.11284843 32.23703614 72.46642313 16.0893094 79 0 C81.98490847 3.47794145 83.46872657 7.34698986 85.046875 11.5859375 C85.47833076 12.71992981 85.47833076 12.71992981 85.91850281 13.87683105 C86.54099021 15.51449152 87.16065235 17.15322808 87.77780151 18.79290771 C89.44905813 23.23165029 91.14202918 27.66211855 92.83203125 32.09375 C93.35296104 33.46223587 93.35296104 33.46223587 93.88441467 34.85836792 C97.03332199 43.11920661 100.263167 51.34668703 103.52157593 59.56484985 C105.05874443 63.44190708 106.59151341 67.3207041 108.125 71.19921875 C108.43358444 71.9795195 108.74216888 72.75982025 109.06010437 73.56376648 C110.0402756 76.04242959 111.0201941 78.52119245 112 81 C112.35932617 81.90897034 112.71865234 82.81794067 113.08886719 83.75445557 C115.34815206 89.47210695 117.6014109 95.19208095 119.84768677 100.91485596 C120.57016715 102.75295157 121.29449171 104.59032344 122.02072144 106.42694092 C123.02767876 108.97419605 124.02826834 111.52386388 125.02734375 114.07421875 C125.32966919 114.83483109 125.63199463 115.59544342 125.94348145 116.37910461 C127.11903271 119.39650492 128 121.73135772 128 125 C121.4 125 114.8 125 108 125 C107.175 122.751875 106.35 120.50375 105.5 118.1875 C105.23896484 117.48391357 104.97792969 116.78032715 104.70898438 116.05541992 C103.68412514 113.22363626 103 111.03435748 103 108 C87.49 108 71.98 108 56 108 C55.67 109.65 55.34 111.3 55 113 C53.74184471 117.0271075 52.36069196 121.00571069 51 125 C43.74 125 36.48 125 29 125 C28.175 122.751875 27.35 120.50375 26.5 118.1875 C26.23896484 117.48391357 25.97792969 116.78032715 25.70898438 116.05541992 C24.68412514 113.22363626 24 111.03435748 24 108 C8.49 108 -7.02 108 -23 108 C-23.33 109.65 -23.66 111.3 -24 113 C-25.25815529 117.0271075 -26.63930804 121.00571069 -28 125 C-34.6 125 -41.2 125 -48 125 C-46.09691134 118.41812132 -43.96946682 112.04703616 -41.4375 105.68359375 C-41.09371307 104.80952377 -40.74992615 103.9354538 -40.39572144 103.03489685 C-39.65420298 101.15073346 -38.91089491 99.26727356 -38.16595459 97.38446045 C-36.14700727 92.28155339 -34.14098918 87.17355919 -32.1328125 82.06640625 C-31.71428009 81.0031311 -31.29574768 79.93985596 -30.86453247 78.84436035 C-25.7565714 65.85873198 -20.72614336 52.84304673 -15.69726562 39.82662964 C-10.55363552 26.51467586 -5.33106956 13.23806848 0 0 Z" transform="translate(250,185)"/><path fill="#010100" d="M0 0 C4.83392596 -0.10057784 9.66721348 -0.17225269 14.50195312 -0.21972656 C16.13878007 -0.23956301 17.77553895 -0.26664112 19.41210938 -0.30175781 C39.80424166 -0.72763773 57.61511065 3.39587663 72.95385742 17.72949219 C77.28339104 22.00561091 80.27972986 26.59804512 83 32 C83.556875 32.928125 84.11375 33.85625 84.6875 34.8125 C90.43572087 48.77246497 91.43746238 65.78792022 86 80 C85.70996094 80.77472656 85.41992188 81.54945313 85.12109375 82.34765625 C78.34553598 98.87548128 66.37864262 108.50776441 50.74609375 116.09375 C39.54644048 120.77001441 27.13691074 120.25768877 15.25 120.125 C13.66667238 120.11494198 12.08333852 120.10582116 10.5 120.09765625 C6.66650912 120.07588495 2.83332582 120.04151386 -1 120 C-0.04956626 118.66102417 0.91059147 117.32894573 1.875 116 C2.40867187 115.2575 2.94234375 114.515 3.4921875 113.75 C4.23855469 112.88375 4.23855469 112.88375 5 112 C5.66 112 6.32 112 7 112 C7 77.35 7 42.7 7 7 C5.68 6.34 4.36 5.68 3 5 C1.25 2.375 1.25 2.375 0 0 Z" transform="translate(124,190)"/><path fill="#FCBD00" d="M0 0 C13.52537793 0 24.16995859 3.01162428 34.3984375 12.140625 C42.55952282 20.81746664 45.17855332 29.63721173 45.1875 41.25 C45.19974609 42.07113281 45.21199219 42.89226562 45.22460938 43.73828125 C45.25021905 54.51141879 42.26307901 64.85641245 34.6875 72.8125 C24.35027072 82.26241346 13.95247554 85 0 85 C0 56.95 0 28.9 0 0 Z" transform="translate(149,207)"/><path fill="#F2B600" d="M0 0 C2.02646947 2.02646947 2.59969183 3.16006455 3.60400391 5.77539062 C3.90416412 6.54959351 4.20432434 7.32379639 4.51358032 8.12145996 C4.83136444 8.95794067 5.14914856 9.79442139 5.4765625 10.65625 C5.80667328 11.51432251 6.13678406 12.37239502 6.47689819 13.25646973 C7.17368677 15.07120164 7.86784305 16.8869461 8.55957031 18.70361328 C9.62164324 21.49118966 10.6929604 24.27507833 11.765625 27.05859375 C12.44065594 28.82010115 13.11515329 30.58181315 13.7890625 32.34375 C14.11089508 33.18023071 14.43272766 34.01671143 14.76431274 34.87854004 C15.05816864 35.65274292 15.35202454 36.4269458 15.65478516 37.22460938 C15.91522614 37.90696655 16.17566711 38.58932373 16.44400024 39.2923584 C17 41 17 41 17 43 C6.11 43 -4.78 43 -16 43 C-14.17278749 36.90929164 -12.35624109 30.98263116 -10.1171875 25.05859375 C-9.85745148 24.36484146 -9.59771545 23.67108917 -9.33010864 22.95631409 C-8.78889015 21.51316325 -8.24606841 20.07061268 -7.70166016 18.62866211 C-6.86551019 16.41234611 -6.03596684 14.19363243 -5.20703125 11.97460938 C-4.67746926 10.56495913 -4.14753537 9.15544852 -3.6171875 7.74609375 C-3.3692746 7.08266464 -3.12136169 6.41923553 -2.86593628 5.73570251 C-1.11523086 1.11523086 -1.11523086 1.11523086 0 0 Z" transform="translate(329,233)"/><path fill="#F2B600" d="M0 0 C2.02646947 2.02646947 2.59969183 3.16006455 3.60400391 5.77539062 C3.90416412 6.54959351 4.20432434 7.32379639 4.51358032 8.12145996 C4.83136444 8.95794067 5.14914856 9.79442139 5.4765625 10.65625 C5.80667328 11.51432251 6.13678406 12.37239502 6.47689819 13.25646973 C7.17368677 15.07120164 7.86784305 16.8869461 8.55957031 18.70361328 C9.62164324 21.49118966 10.6929604 24.27507833 11.765625 27.05859375 C12.44065594 28.82010115 13.11515329 30.58181315 13.7890625 32.34375 C14.11089508 33.18023071 14.43272766 34.01671143 14.76431274 34.87854004 C15.05816864 35.65274292 15.35202454 36.4269458 15.65478516 37.22460938 C15.91522614 37.90696655 16.17566711 38.58932373 16.44400024 39.2923584 C17 41 17 41 17 43 C6.11 43 -4.78 43 -16 43 C-14.17278749 36.90929164 -12.35624109 30.98263116 -10.1171875 25.05859375 C-9.85745148 24.36484146 -9.59771545 23.67108917 -9.33010864 22.95631409 C-8.78889015 21.51316325 -8.24606841 20.07061268 -7.70166016 18.62866211 C-6.86551019 16.41234611 -6.03596684 14.19363243 -5.20703125 11.97460938 C-4.67746926 10.56495913 -4.14753537 9.15544852 -3.6171875 7.74609375 C-3.3692746 7.08266464 -3.12136169 6.41923553 -2.86593628 5.73570251 C-1.11523086 1.11523086 -1.11523086 1.11523086 0 0 Z" transform="translate(250,233)"/><path fill="#151000" d="M0 0 C0.99 0.495 0.99 0.495 2 1 C-19.71027302 20.83465548 -46.13294625 27.24742218 -75.00488281 26.19091797 C-94.61387254 24.94098074 -115.56830204 15.19469528 -130 2 C-126.10963252 2 -124.7237644 3.3397455 -121.5 5.5 C-98.64282135 20.06514223 -71.2219021 26.13535677 -44.52148438 20.45751953 C-28.96959136 16.75455438 -12.31974462 10.49632891 0 0 Z" transform="translate(315,324)"/><path fill="#161100" d="M0 0 C3.39815329 2.59221125 6.72475974 5.25437306 10 8 C6.33258184 8 5.35753395 7.06838268 2.375 5 C-21.34385856 -10.39699885 -49.75233167 -17.23606441 -77.75 -11.5 C-90.61631251 -8.60433022 -103.35443727 -3.32959868 -114.28515625 4.06640625 C-115.13400391 4.52853516 -115.13400391 4.52853516 -116 5 C-116.66 4.67 -117.32 4.34 -118 4 C-84.84165331 -23.06803812 -34.99335417 -24.96889594 0 0 Z" transform="translate(307,168)"/><path fill="#191300" d="M0 0 C2.58141779 1.23113772 5.06353731 2.5950013 7.5390625 4.0234375 C14.84638767 8.23569576 21.98886677 12.24617295 30 15 C29.67 15.99 29.34 16.98 29 18 C23.94377747 16.51705174 19.6161467 14.33554516 15.0625 11.75 C14.35609375 11.35103516 13.6496875 10.95207031 12.921875 10.54101562 C8.13676191 7.78447089 3.92334318 4.92334318 0 1 C0 0.67 0 0.34 0 0 Z" transform="translate(185,325)"/><path fill="#261D00" d="M0 0 C0.66 0.33 1.32 0.66 2 1 C-4.60255621 6.7615462 -10.93011631 11.51647103 -19 15 C-19.33 14.01 -19.66 13.02 -20 12 C-18.97519531 11.46890625 -17.95039063 10.9378125 -16.89453125 10.390625 C-15.53370644 9.6773651 -14.17303758 8.96380762 -12.8125 8.25 C-12.13896484 7.90195312 -11.46542969 7.55390625 -10.77148438 7.1953125 C-6.83497663 5.12144501 -3.39063317 2.92318666 0 0 Z" transform="translate(315,324)"/><path fill="#291E00" d="M0 0 C3.32330687 1.61471407 6.0727084 3.61119258 9.015625 5.84375 C9.82773437 6.44896484 9.82773437 6.44896484 10.65625 7.06640625 C14.63323692 10.07897384 14.63323692 10.07897384 15.765625 12.34375 C11.96474475 10.51015953 8.30650263 8.42989892 4.640625 6.34375 C4.00769531 5.98796875 3.37476563 5.6321875 2.72265625 5.265625 C0.12833519 3.78945081 -2.11354466 2.46458034 -4.234375 0.34375 C-2.234375 -0.65625 -2.234375 -0.65625 0 0 Z" transform="translate(301.234375,164.65625)"/><path fill="#3A2B00" d="M0 0 C2.86867231 1.38264837 5.56024032 2.92148553 8.25 4.625 C8.95640625 5.07101562 9.6628125 5.51703125 10.390625 5.9765625 C10.92171875 6.31429688 11.4528125 6.65203125 12 7 C11.34 7.66 10.68 8.32 10 9 C8.33043913 7.69118353 6.66441696 6.37785174 5 5.0625 C4.071875 4.33160156 3.14375 3.60070312 2.1875 2.84765625 C1.465625 2.23792969 0.74375 1.62820313 0 1 C0 0.67 0 0.34 0 0 Z" transform="translate(185,325)"/></svg>